<?xml version="1.0" encoding="us-ascii" standalone="no"?><svg xmlns="http://www.w3.org/2000/svg" xmlns:xlink="http://www.w3.org/1999/xlink" contentStyleType="text/css" height="1487.5px" preserveAspectRatio="none" style="width:3362px;height:1487px;" version="1.1" viewBox="0 0 3362 1487" width="3362.5px" zoomAndPan="magnify"><defs><linearGradient id="g1mjyspxg2s0dt0" x1="50%" x2="50%" y1="0%" y2="100%"><stop offset="0%" stop-color="#F18E3E"/><stop offset="100%" stop-color="#EC7211"/></linearGradient></defs><g><!--class LoginPage--><g id="elem_LoginPage"><rect codeLine="8" fill="url(#g1mjyspxg2s0dt0)" height="99.5605" id="LoginPage" rx="4.1667" ry="4.1667" style="stroke:#EC7211;stroke-width:1.0416666666666667;" width="334.375" x="7.2917" y="217.1875"/><rect fill="url(#g1mjyspxg2s0dt0)" height="59.139" rx="4.1667" ry="4.1667" style="stroke:url(#g1mjyspxg2s0dt0);stroke-width:1.0416666666666667;" width="334.375" x="7.2917" y="217.1875"/><rect fill="url(#g1mjyspxg2s0dt0)" height="4.1667" style="stroke:url(#g1mjyspxg2s0dt0);stroke-width:1.0416666666666667;" width="334.375" x="7.2917" y="272.1598"/><rect codeLine="8" fill="none" height="99.5605" id="LoginPage" rx="4.1667" ry="4.1667" style="stroke:#EC7211;stroke-width:1.0416666666666667;" width="334.375" x="7.2917" y="217.1875"/><ellipse cx="131.25" cy="246.757" fill="#4FC3F7" rx="10.4167" ry="10.4167" style="stroke:#181818;stroke-width:1.0416666666666667;"/><path d="M130.5501,247.3592 L131.6081,247.3592 L131.6081,247.4569 C131.6081,247.7336 131.6406,247.88 131.7057,247.994 C131.8197,248.173 132.0313,248.2869 132.2428,248.2869 C132.4219,248.2869 132.6172,248.1893 132.7311,248.0265 C132.8288,247.8963 132.8451,247.7824 132.8451,247.4569 L132.8451,246.0409 C132.8451,245.7316 132.8451,245.634 132.7637,245.52 C132.6497,245.3247 132.4544,245.2108 132.2428,245.2108 C132.0313,245.2108 131.8522,245.3084 131.722,245.4712 C131.6406,245.5851 131.6081,245.7316 131.6081,246.0409 L131.6081,246.1222 L130.5501,246.1222 L130.5501,244.3644 L133.7565,244.3644 L133.7565,244.9992 C133.7565,245.2922 133.7728,245.4224 133.8379,245.52 C133.9681,245.7153 134.1634,245.8293 134.375,245.8293 C134.5703,245.8293 134.7656,245.7316 134.8796,245.5688 C134.9772,245.4386 134.9935,245.341 134.9935,244.9992 L134.9935,243.1112 L129.1178,243.1112 C128.7923,243.1112 128.6947,243.1274 128.5807,243.2088 C128.4017,243.3228 128.2878,243.5343 128.2878,243.7459 C128.2878,243.9412 128.3854,244.1203 128.5482,244.2505 C128.6621,244.3481 128.7923,244.3644 129.1178,244.3644 L129.2969,244.3644 L129.2969,249.1496 L129.1178,249.1496 C128.8086,249.1496 128.6947,249.1659 128.5807,249.2472 C128.4017,249.3449 128.2878,249.5728 128.2878,249.7843 C128.2878,249.9634 128.3854,250.1587 128.5482,250.2726 C128.6458,250.3703 128.8249,250.4028 129.1178,250.4028 L131.8034,250.4028 C132.0475,250.4028 132.2428,250.3703 132.3242,250.3215 C132.5195,250.2075 132.6172,249.9959 132.6172,249.7843 C132.6172,249.5728 132.5195,249.3937 132.373,249.2635 C132.2428,249.1821 132.1452,249.1496 131.8034,249.1496 L130.5501,249.1496 L130.5501,247.3592 Z " fill="#000000"/><text fill="#4E5D6C" font-family="Verdana" font-size="12.5" font-style="italic" lengthAdjust="spacing" textLength="71.875" x="154.1667" y="239.2069">&#171;Frontend&#187;</text><text fill="#FFFFFF" font-family="Verdana" font-size="11.4583" lengthAdjust="spacing" textLength="60.4167" x="159.8958" y="263.2075">LoginPage</text><line style="stroke:#EC7211;stroke-width:1.0416666666666667;" x1="8.3333" x2="340.625" y1="276.3265" y2="276.3265"/><line style="stroke:#EC7211;stroke-width:1.0416666666666667;" x1="8.3333" x2="340.625" y1="284.6598" y2="284.6598"/><ellipse cx="18.75" cy="302.2664" fill="#84BE84" rx="3.125" ry="3.125" style="stroke:#038048;stroke-width:1.0416666666666667;"/><text fill="#FFFFFF" font-family="Verdana" font-size="11.4583" lengthAdjust="spacing" textLength="297.9167" x="32.2917" y="304.6707">login(username: String, password: String): boolean</text></g><!--class TopicsView--><g id="elem_TopicsView"><rect codeLine="12" fill="url(#g1mjyspxg2s0dt0)" height="265.8447" id="TopicsView" rx="4.1667" ry="4.1667" style="stroke:#EC7211;stroke-width:1.0416666666666667;" width="219.7917" x="598.9583" y="682.2917"/><rect fill="url(#g1mjyspxg2s0dt0)" height="59.139" rx="4.1667" ry="4.1667" style="stroke:url(#g1mjyspxg2s0dt0);stroke-width:1.0416666666666667;" width="219.7917" x="598.9583" y="682.2917"/><rect fill="url(#g1mjyspxg2s0dt0)" height="4.1667" style="stroke:url(#g1mjyspxg2s0dt0);stroke-width:1.0416666666666667;" width="219.7917" x="598.9583" y="737.264"/><rect codeLine="12" fill="none" height="265.8447" id="TopicsView" rx="4.1667" ry="4.1667" style="stroke:#EC7211;stroke-width:1.0416666666666667;" width="219.7917" x="598.9583" y="682.2917"/><ellipse cx="665.625" cy="711.8612" fill="#4FC3F7" rx="10.4167" ry="10.4167" style="stroke:#181818;stroke-width:1.0416666666666667;"/><path d="M664.9251,712.4634 L665.9831,712.4634 L665.9831,712.561 C665.9831,712.8377 666.0156,712.9842 666.0807,713.0981 C666.1947,713.2772 666.4063,713.3911 666.6178,713.3911 C666.7969,713.3911 666.9922,713.2935 667.1061,713.1307 C667.2038,713.0005 667.2201,712.8866 667.2201,712.561 L667.2201,711.145 C667.2201,710.8358 667.2201,710.7381 667.1387,710.6242 C667.0247,710.4289 666.8294,710.3149 666.6178,710.3149 C666.4063,710.3149 666.2272,710.4126 666.097,710.5754 C666.0156,710.6893 665.9831,710.8358 665.9831,711.145 L665.9831,711.2264 L664.9251,711.2264 L664.9251,709.4686 L668.1315,709.4686 L668.1315,710.1034 C668.1315,710.3963 668.1478,710.5265 668.2129,710.6242 C668.3431,710.8195 668.5384,710.9334 668.75,710.9334 C668.9453,710.9334 669.1406,710.8358 669.2546,710.673 C669.3522,710.5428 669.3685,710.4451 669.3685,710.1034 L669.3685,708.2153 L663.4928,708.2153 C663.1673,708.2153 663.0697,708.2316 662.9557,708.313 C662.7767,708.4269 662.6628,708.6385 662.6628,708.8501 C662.6628,709.0454 662.7604,709.2244 662.9232,709.3547 C663.0371,709.4523 663.1673,709.4686 663.4928,709.4686 L663.6719,709.4686 L663.6719,714.2537 L663.4928,714.2537 C663.1836,714.2537 663.0697,714.27 662.9557,714.3514 C662.7767,714.4491 662.6628,714.6769 662.6628,714.8885 C662.6628,715.0675 662.7604,715.2629 662.9232,715.3768 C663.0208,715.4744 663.1999,715.507 663.4928,715.507 L666.1784,715.507 C666.4225,715.507 666.6178,715.4744 666.6992,715.4256 C666.8945,715.3117 666.9922,715.1001 666.9922,714.8885 C666.9922,714.6769 666.8945,714.4979 666.748,714.3677 C666.6178,714.2863 666.5202,714.2537 666.1784,714.2537 L664.9251,714.2537 L664.9251,712.4634 Z " fill="#000000"/><text fill="#4E5D6C" font-family="Verdana" font-size="12.5" font-style="italic" lengthAdjust="spacing" textLength="71.875" x="688.5417" y="704.3111">&#171;Frontend&#187;</text><text fill="#FFFFFF" font-family="Verdana" font-size="11.4583" lengthAdjust="spacing" textLength="66.6667" x="691.1458" y="728.3117">TopicsView</text><line style="stroke:#EC7211;stroke-width:1.0416666666666667;" x1="600" x2="817.7083" y1="741.4307" y2="741.4307"/><line style="stroke:#EC7211;stroke-width:1.0416666666666667;" x1="600" x2="817.7083" y1="749.764" y2="749.764"/><ellipse cx="610.4167" cy="767.3706" fill="#84BE84" rx="3.125" ry="3.125" style="stroke:#038048;stroke-width:1.0416666666666667;"/><text fill="#FFFFFF" font-family="Verdana" font-size="11.4583" lengthAdjust="spacing" textLength="183.3333" x="623.9583" y="769.7749">loadTopics(): List&lt;TopicModel&gt;</text><ellipse cx="610.4167" cy="791.1255" fill="#84BE84" rx="3.125" ry="3.125" style="stroke:#038048;stroke-width:1.0416666666666667;"/><text fill="#FFFFFF" font-family="Verdana" font-size="11.4583" lengthAdjust="spacing" textLength="110.4167" x="623.9583" y="793.5298">createTopic(): void</text><ellipse cx="610.4167" cy="814.8804" fill="#84BE84" rx="3.125" ry="3.125" style="stroke:#038048;stroke-width:1.0416666666666667;"/><text fill="#FFFFFF" font-family="Verdana" font-size="11.4583" lengthAdjust="spacing" textLength="94.7917" x="623.9583" y="817.2846">editTopic(): void</text><ellipse cx="610.4167" cy="838.6353" fill="#84BE84" rx="3.125" ry="3.125" style="stroke:#038048;stroke-width:1.0416666666666667;"/><text fill="#FFFFFF" font-family="Verdana" font-size="11.4583" lengthAdjust="spacing" textLength="98.9583" x="623.9583" y="841.0395">voteTopic(): void</text><ellipse cx="610.4167" cy="862.3901" fill="#84BE84" rx="3.125" ry="3.125" style="stroke:#038048;stroke-width:1.0416666666666667;"/><text fill="#FFFFFF" font-family="Verdana" font-size="11.4583" lengthAdjust="spacing" textLength="119.7917" x="623.9583" y="864.7944">votingResults(): void</text><ellipse cx="610.4167" cy="886.145" fill="#84BE84" rx="3.125" ry="3.125" style="stroke:#038048;stroke-width:1.0416666666666667;"/><text fill="#FFFFFF" font-family="Verdana" font-size="11.4583" lengthAdjust="spacing" textLength="126.0417" x="623.9583" y="888.5493">closeTopic(): boolean</text><ellipse cx="610.4167" cy="909.8999" fill="#84BE84" rx="3.125" ry="3.125" style="stroke:#038048;stroke-width:1.0416666666666667;"/><text fill="#FFFFFF" font-family="Verdana" font-size="11.4583" lengthAdjust="spacing" textLength="134.375" x="623.9583" y="912.3042">deleteTopic(): boolean</text><ellipse cx="610.4167" cy="933.6548" fill="#84BE84" rx="3.125" ry="3.125" style="stroke:#038048;stroke-width:1.0416666666666667;"/><text fill="#FFFFFF" font-family="Verdana" font-size="11.4583" lengthAdjust="spacing" textLength="77.0833" x="623.9583" y="936.0591">logout(): void</text></g><!--class CreateTopicModal--><g id="elem_CreateTopicModal"><rect codeLine="23" fill="url(#g1mjyspxg2s0dt0)" height="289.5996" id="CreateTopicModal" rx="4.1667" ry="4.1667" style="stroke:#EC7211;stroke-width:1.0416666666666667;" width="404.1667" x="882.2917" y="463.0208"/><rect fill="url(#g1mjyspxg2s0dt0)" height="59.139" rx="4.1667" ry="4.1667" style="stroke:url(#g1mjyspxg2s0dt0);stroke-width:1.0416666666666667;" width="404.1667" x="882.2917" y="463.0208"/><rect fill="url(#g1mjyspxg2s0dt0)" height="4.1667" style="stroke:url(#g1mjyspxg2s0dt0);stroke-width:1.0416666666666667;" width="404.1667" x="882.2917" y="517.9932"/><rect codeLine="23" fill="none" height="289.5996" id="CreateTopicModal" rx="4.1667" ry="4.1667" style="stroke:#EC7211;stroke-width:1.0416666666666667;" width="404.1667" x="882.2917" y="463.0208"/><ellipse cx="1021.875" cy="492.5903" fill="#4FC3F7" rx="10.4167" ry="10.4167" style="stroke:#181818;stroke-width:1.0416666666666667;"/><path d="M1021.1751,493.1925 L1022.2331,493.1925 L1022.2331,493.2902 C1022.2331,493.5669 1022.2656,493.7134 1022.3307,493.8273 C1022.4447,494.0063 1022.6563,494.1203 1022.8678,494.1203 C1023.0469,494.1203 1023.2422,494.0226 1023.3561,493.8599 C1023.4538,493.7297 1023.4701,493.6157 1023.4701,493.2902 L1023.4701,491.8742 C1023.4701,491.5649 1023.4701,491.4673 1023.3887,491.3534 C1023.2747,491.158 1023.0794,491.0441 1022.8678,491.0441 C1022.6563,491.0441 1022.4772,491.1418 1022.347,491.3045 C1022.2656,491.4185 1022.2331,491.5649 1022.2331,491.8742 L1022.2331,491.9556 L1021.1751,491.9556 L1021.1751,490.1978 L1024.3815,490.1978 L1024.3815,490.8325 C1024.3815,491.1255 1024.3978,491.2557 1024.4629,491.3534 C1024.5931,491.5487 1024.7884,491.6626 1025,491.6626 C1025.1953,491.6626 1025.3906,491.5649 1025.5046,491.4022 C1025.6022,491.272 1025.6185,491.1743 1025.6185,490.8325 L1025.6185,488.9445 L1019.7428,488.9445 C1019.4173,488.9445 1019.3197,488.9608 1019.2057,489.0422 C1019.0267,489.1561 1018.9128,489.3677 1018.9128,489.5793 C1018.9128,489.7746 1019.0104,489.9536 1019.1732,490.0838 C1019.2871,490.1815 1019.4173,490.1978 1019.7428,490.1978 L1019.9219,490.1978 L1019.9219,494.9829 L1019.7428,494.9829 C1019.4336,494.9829 1019.3197,494.9992 1019.2057,495.0806 C1019.0267,495.1782 1018.9128,495.4061 1018.9128,495.6177 C1018.9128,495.7967 1019.0104,495.992 1019.1732,496.106 C1019.2708,496.2036 1019.4499,496.2362 1019.7428,496.2362 L1022.4284,496.2362 C1022.6725,496.2362 1022.8678,496.2036 1022.9492,496.1548 C1023.1445,496.0409 1023.2422,495.8293 1023.2422,495.6177 C1023.2422,495.4061 1023.1445,495.2271 1022.998,495.0968 C1022.8678,495.0155 1022.7702,494.9829 1022.4284,494.9829 L1021.1751,494.9829 L1021.1751,493.1925 Z " fill="#000000"/><text fill="#4E5D6C" font-family="Verdana" font-size="12.5" font-style="italic" lengthAdjust="spacing" textLength="71.875" x="1064.0625" y="485.0403">&#171;Frontend&#187;</text><text fill="#FFFFFF" font-family="Verdana" font-size="11.4583" lengthAdjust="spacing" textLength="106.25" x="1046.875" y="509.0408">CreateTopicModal</text><line style="stroke:#EC7211;stroke-width:1.0416666666666667;" x1="883.3333" x2="1285.4167" y1="522.1598" y2="522.1598"/><text fill="#FFFFFF" font-family="Verdana" font-size="11.4583" lengthAdjust="spacing" textLength="318.75" x="893.75" y="542.1707">options: List&lt;String&gt;, user: String, groupName: String,</text><line style="stroke:#EC7211;stroke-width:1.0416666666666667;" x1="883.3333" x2="1285.4167" y1="554.248" y2="554.248"/><ellipse cx="893.75" cy="571.8547" fill="#84BE84" rx="3.125" ry="3.125" style="stroke:#038048;stroke-width:1.0416666666666667;"/><text fill="#FFFFFF" font-family="Verdana" font-size="11.4583" lengthAdjust="spacing" textLength="317.7083" x="907.2917" y="574.2589">createTopic(title: String, type: String, question: String,</text><text fill="#FFFFFF" font-family="Verdana" font-size="11.4583" lengthAdjust="spacing" textLength="309.375" x="907.2917" y="598.0138">groupMembers: List&lt;String&gt;, closeDate: Date): void</text><ellipse cx="893.75" cy="619.3644" fill="#84BE84" rx="3.125" ry="3.125" style="stroke:#038048;stroke-width:1.0416666666666667;"/><text fill="#FFFFFF" font-family="Verdana" font-size="11.4583" lengthAdjust="spacing" textLength="367.7083" x="907.2917" y="621.7687">createGroup(groupName: String, groupMembers: List&lt;String&gt;,</text><text fill="#FFFFFF" font-family="Verdana" font-size="11.4583" lengthAdjust="spacing" textLength="104.1667" x="907.2917" y="645.5236">user: String): void</text><ellipse cx="893.75" cy="666.8742" fill="#84BE84" rx="3.125" ry="3.125" style="stroke:#038048;stroke-width:1.0416666666666667;"/><text fill="#FFFFFF" font-family="Verdana" font-size="11.4583" lengthAdjust="spacing" textLength="352.0833" x="907.2917" y="669.2785">editGroup(groupName: String, groupMembers: List&lt;String&gt;,</text><text fill="#FFFFFF" font-family="Verdana" font-size="11.4583" lengthAdjust="spacing" textLength="104.1667" x="907.2917" y="693.0333">user: String): void</text><ellipse cx="893.75" cy="714.384" fill="#84BE84" rx="3.125" ry="3.125" style="stroke:#038048;stroke-width:1.0416666666666667;"/><text fill="#FFFFFF" font-family="Verdana" font-size="11.4583" lengthAdjust="spacing" textLength="163.5417" x="907.2917" y="716.7882">getGroup(user: String): void</text><ellipse cx="893.75" cy="738.1388" fill="#84BE84" rx="3.125" ry="3.125" style="stroke:#038048;stroke-width:1.0416666666666667;"/><text fill="#FFFFFF" font-family="Verdana" font-size="11.4583" lengthAdjust="spacing" textLength="106.25" x="907.2917" y="740.5431">closeModal(): void</text></g><!--class EditTopicModal--><g id="elem_EditTopicModal"><rect codeLine="35" fill="url(#g1mjyspxg2s0dt0)" height="170.8252" id="EditTopicModal" rx="4.1667" ry="4.1667" style="stroke:#EC7211;stroke-width:1.0416666666666667;" width="368.75" x="900" y="888.0208"/><rect fill="url(#g1mjyspxg2s0dt0)" height="59.139" rx="4.1667" ry="4.1667" style="stroke:url(#g1mjyspxg2s0dt0);stroke-width:1.0416666666666667;" width="368.75" x="900" y="888.0208"/><rect fill="url(#g1mjyspxg2s0dt0)" height="4.1667" style="stroke:url(#g1mjyspxg2s0dt0);stroke-width:1.0416666666666667;" width="368.75" x="900" y="942.9932"/><rect codeLine="35" fill="none" height="170.8252" id="EditTopicModal" rx="4.1667" ry="4.1667" style="stroke:#EC7211;stroke-width:1.0416666666666667;" width="368.75" x="900" y="888.0208"/><ellipse cx="1031.25" cy="917.5903" fill="#4FC3F7" rx="10.4167" ry="10.4167" style="stroke:#181818;stroke-width:1.0416666666666667;"/><path d="M1030.5501,918.1925 L1031.6081,918.1925 L1031.6081,918.2902 C1031.6081,918.5669 1031.6406,918.7134 1031.7057,918.8273 C1031.8197,919.0063 1032.0313,919.1203 1032.2428,919.1203 C1032.4219,919.1203 1032.6172,919.0226 1032.7311,918.8599 C1032.8288,918.7297 1032.8451,918.6157 1032.8451,918.2902 L1032.8451,916.8742 C1032.8451,916.5649 1032.8451,916.4673 1032.7637,916.3534 C1032.6497,916.158 1032.4544,916.0441 1032.2428,916.0441 C1032.0313,916.0441 1031.8522,916.1418 1031.722,916.3045 C1031.6406,916.4185 1031.6081,916.5649 1031.6081,916.8742 L1031.6081,916.9556 L1030.5501,916.9556 L1030.5501,915.1978 L1033.7565,915.1978 L1033.7565,915.8325 C1033.7565,916.1255 1033.7728,916.2557 1033.8379,916.3534 C1033.9681,916.5487 1034.1634,916.6626 1034.375,916.6626 C1034.5703,916.6626 1034.7656,916.5649 1034.8796,916.4022 C1034.9772,916.272 1034.9935,916.1743 1034.9935,915.8325 L1034.9935,913.9445 L1029.1178,913.9445 C1028.7923,913.9445 1028.6947,913.9608 1028.5807,914.0422 C1028.4017,914.1561 1028.2878,914.3677 1028.2878,914.5793 C1028.2878,914.7746 1028.3854,914.9536 1028.5482,915.0838 C1028.6621,915.1815 1028.7923,915.1978 1029.1178,915.1978 L1029.2969,915.1978 L1029.2969,919.9829 L1029.1178,919.9829 C1028.8086,919.9829 1028.6947,919.9992 1028.5807,920.0806 C1028.4017,920.1782 1028.2878,920.4061 1028.2878,920.6177 C1028.2878,920.7967 1028.3854,920.992 1028.5482,921.106 C1028.6458,921.2036 1028.8249,921.2362 1029.1178,921.2362 L1031.8034,921.2362 C1032.0475,921.2362 1032.2428,921.2036 1032.3242,921.1548 C1032.5195,921.0409 1032.6172,920.8293 1032.6172,920.6177 C1032.6172,920.4061 1032.5195,920.2271 1032.373,920.0968 C1032.2428,920.0155 1032.1452,919.9829 1031.8034,919.9829 L1030.5501,919.9829 L1030.5501,918.1925 Z " fill="#000000"/><text fill="#4E5D6C" font-family="Verdana" font-size="12.5" font-style="italic" lengthAdjust="spacing" textLength="71.875" x="1064.0625" y="910.0403">&#171;Frontend&#187;</text><text fill="#FFFFFF" font-family="Verdana" font-size="11.4583" lengthAdjust="spacing" textLength="87.5" x="1056.25" y="934.0408">EditTopicModal</text><line style="stroke:#EC7211;stroke-width:1.0416666666666667;" x1="901.0417" x2="1267.7083" y1="947.1598" y2="947.1598"/><text fill="#FFFFFF" font-family="Verdana" font-size="11.4583" lengthAdjust="spacing" textLength="318.75" x="911.4583" y="967.1707">options: List&lt;String&gt;, user: String, groupName: String,</text><line style="stroke:#EC7211;stroke-width:1.0416666666666667;" x1="901.0417" x2="1267.7083" y1="979.248" y2="979.248"/><ellipse cx="911.4583" cy="996.8547" fill="#84BE84" rx="3.125" ry="3.125" style="stroke:#038048;stroke-width:1.0416666666666667;"/><text fill="#FFFFFF" font-family="Verdana" font-size="11.4583" lengthAdjust="spacing" textLength="302.0833" x="925" y="999.2589">editTopic(title: String, type: String, question: String,</text><text fill="#FFFFFF" font-family="Verdana" font-size="11.4583" lengthAdjust="spacing" textLength="332.2917" x="925" y="1023.0138">groupMembers: List&lt;String&gt;, closeDate: Date): boolean</text><ellipse cx="911.4583" cy="1044.3644" fill="#84BE84" rx="3.125" ry="3.125" style="stroke:#038048;stroke-width:1.0416666666666667;"/><text fill="#FFFFFF" font-family="Verdana" font-size="11.4583" lengthAdjust="spacing" textLength="106.25" x="925" y="1046.7687">closeModal(): void</text></g><!--class VotingTopicModal--><g id="elem_VotingTopicModal"><rect codeLine="42" fill="url(#g1mjyspxg2s0dt0)" height="170.8252" id="VotingTopicModal" rx="4.1667" ry="4.1667" style="stroke:#EC7211;stroke-width:1.0416666666666667;" width="293.75" x="937.5" y="1095.3125"/><rect fill="url(#g1mjyspxg2s0dt0)" height="59.139" rx="4.1667" ry="4.1667" style="stroke:url(#g1mjyspxg2s0dt0);stroke-width:1.0416666666666667;" width="293.75" x="937.5" y="1095.3125"/><rect fill="url(#g1mjyspxg2s0dt0)" height="4.1667" style="stroke:url(#g1mjyspxg2s0dt0);stroke-width:1.0416666666666667;" width="293.75" x="937.5" y="1150.2848"/><rect codeLine="42" fill="none" height="170.8252" id="VotingTopicModal" rx="4.1667" ry="4.1667" style="stroke:#EC7211;stroke-width:1.0416666666666667;" width="293.75" x="937.5" y="1095.3125"/><ellipse cx="1023.4375" cy="1124.882" fill="#4FC3F7" rx="10.4167" ry="10.4167" style="stroke:#181818;stroke-width:1.0416666666666667;"/><path d="M1022.7376,1125.4842 L1023.7956,1125.4842 L1023.7956,1125.5819 C1023.7956,1125.8586 1023.8281,1126.005 1023.8932,1126.119 C1024.0072,1126.298 1024.2188,1126.4119 1024.4303,1126.4119 C1024.6094,1126.4119 1024.8047,1126.3143 1024.9186,1126.1515 C1025.0163,1126.0213 1025.0326,1125.9074 1025.0326,1125.5819 L1025.0326,1124.1659 C1025.0326,1123.8566 1025.0326,1123.759 1024.9512,1123.645 C1024.8372,1123.4497 1024.6419,1123.3358 1024.4303,1123.3358 C1024.2188,1123.3358 1024.0397,1123.4334 1023.9095,1123.5962 C1023.8281,1123.7101 1023.7956,1123.8566 1023.7956,1124.1659 L1023.7956,1124.2472 L1022.7376,1124.2472 L1022.7376,1122.4894 L1025.944,1122.4894 L1025.944,1123.1242 C1025.944,1123.4172 1025.9603,1123.5474 1026.0254,1123.645 C1026.1556,1123.8403 1026.3509,1123.9543 1026.5625,1123.9543 C1026.7578,1123.9543 1026.9531,1123.8566 1027.0671,1123.6938 C1027.1647,1123.5636 1027.181,1123.466 1027.181,1123.1242 L1027.181,1121.2362 L1021.3053,1121.2362 C1020.9798,1121.2362 1020.8822,1121.2524 1020.7682,1121.3338 C1020.5892,1121.4478 1020.4753,1121.6593 1020.4753,1121.8709 C1020.4753,1122.0662 1020.5729,1122.2453 1020.7357,1122.3755 C1020.8496,1122.4731 1020.9798,1122.4894 1021.3053,1122.4894 L1021.4844,1122.4894 L1021.4844,1127.2746 L1021.3053,1127.2746 C1020.9961,1127.2746 1020.8822,1127.2909 1020.7682,1127.3722 C1020.5892,1127.4699 1020.4753,1127.6978 1020.4753,1127.9093 C1020.4753,1128.0884 1020.5729,1128.2837 1020.7357,1128.3976 C1020.8333,1128.4953 1021.0124,1128.5278 1021.3053,1128.5278 L1023.9909,1128.5278 C1024.235,1128.5278 1024.4303,1128.4953 1024.5117,1128.4465 C1024.707,1128.3325 1024.8047,1128.1209 1024.8047,1127.9093 C1024.8047,1127.6978 1024.707,1127.5187 1024.5605,1127.3885 C1024.4303,1127.3071 1024.3327,1127.2746 1023.9909,1127.2746 L1022.7376,1127.2746 L1022.7376,1125.4842 Z " fill="#000000"/><text fill="#4E5D6C" font-family="Verdana" font-size="12.5" font-style="italic" lengthAdjust="spacing" textLength="71.875" x="1064.0625" y="1117.3319">&#171;Frontend&#187;</text><text fill="#FFFFFF" font-family="Verdana" font-size="11.4583" lengthAdjust="spacing" textLength="103.125" x="1048.4375" y="1141.3325">VotingTopicModal</text><line style="stroke:#EC7211;stroke-width:1.0416666666666667;" x1="938.5417" x2="1230.2083" y1="1154.4515" y2="1154.4515"/><line style="stroke:#EC7211;stroke-width:1.0416666666666667;" x1="938.5417" x2="1230.2083" y1="1162.7848" y2="1162.7848"/><ellipse cx="948.9583" cy="1180.3914" fill="#84BE84" rx="3.125" ry="3.125" style="stroke:#038048;stroke-width:1.0416666666666667;"/><text fill="#FFFFFF" font-family="Verdana" font-size="11.4583" lengthAdjust="spacing" textLength="257.2917" x="962.5" y="1182.7957">votingTopic(topicTitle: String, author: String,</text><text fill="#FFFFFF" font-family="Verdana" font-size="11.4583" lengthAdjust="spacing" textLength="257.2917" x="962.5" y="1206.5506">options: List&lt;String&gt;, user: String): boolean</text><ellipse cx="948.9583" cy="1227.9012" fill="#84BE84" rx="3.125" ry="3.125" style="stroke:#038048;stroke-width:1.0416666666666667;"/><text fill="#FFFFFF" font-family="Verdana" font-size="11.4583" lengthAdjust="spacing" textLength="227.0833" x="962.5" y="1230.3055">viewResults(user: String): List&lt;String&gt;</text><ellipse cx="948.9583" cy="1251.6561" fill="#84BE84" rx="3.125" ry="3.125" style="stroke:#038048;stroke-width:1.0416666666666667;"/><text fill="#FFFFFF" font-family="Verdana" font-size="11.4583" lengthAdjust="spacing" textLength="106.25" x="962.5" y="1254.0604">closeModal(): void</text></g><!--class SqliteDatabase--><g id="elem_SqliteDatabase"><rect codeLine="49" fill="url(#g1mjyspxg2s0dt0)" height="170.8252" id="SqliteDatabase" rx="4.1667" ry="4.1667" style="stroke:#EC7211;stroke-width:1.0416666666666667;" width="133.3333" x="1900" y="355.7292"/><rect fill="url(#g1mjyspxg2s0dt0)" height="59.139" rx="4.1667" ry="4.1667" style="stroke:url(#g1mjyspxg2s0dt0);stroke-width:1.0416666666666667;" width="133.3333" x="1900" y="355.7292"/><rect fill="url(#g1mjyspxg2s0dt0)" height="4.1667" style="stroke:url(#g1mjyspxg2s0dt0);stroke-width:1.0416666666666667;" width="133.3333" x="1900" y="410.7015"/><rect codeLine="49" fill="none" height="170.8252" id="SqliteDatabase" rx="4.1667" ry="4.1667" style="stroke:#EC7211;stroke-width:1.0416666666666667;" width="133.3333" x="1900" y="355.7292"/><ellipse cx="1914.5833" cy="385.2987" fill="#F9A825" rx="10.4167" ry="10.4167" style="stroke:#181818;stroke-width:1.0416666666666667;"/><path d="M1912.9069,387.6912 C1912.4349,387.6912 1912.1419,387.9191 1912.1419,388.326 C1912.1419,388.505 1912.2396,388.7004 1912.4023,388.8143 C1912.5163,388.9119 1912.679,388.9445 1912.972,388.9445 L1915.5273,388.9445 C1916.6178,388.9445 1917.3665,388.6515 1917.985,388.0005 C1918.5547,387.4146 1918.8477,386.6333 1918.8477,385.7218 L1918.8477,385.1359 C1918.8477,383.1665 1917.4479,381.6528 1915.625,381.6528 L1912.972,381.6528 C1912.6465,381.6528 1912.5488,381.6691 1912.4349,381.7505 C1912.2559,381.8644 1912.1419,382.076 1912.1419,382.2876 C1912.1419,382.6782 1912.4186,382.9061 1912.9069,382.9061 L1912.9069,387.6912 Z M1914.1602,387.6912 L1914.1602,382.9061 L1915.5273,382.9061 C1916.1947,382.9061 1916.6667,383.1014 1917.041,383.5409 C1917.3991,383.964 1917.6107,384.5174 1917.6107,385.1034 L1917.6107,385.6893 C1917.6107,386.3241 1917.4479,386.7635 1917.0898,387.1379 C1916.6992,387.5448 1916.2923,387.6912 1915.5436,387.6912 L1914.1602,387.6912 Z " fill="#000000"/><text fill="#4E5D6C" font-family="Verdana" font-size="12.5" font-style="italic" lengthAdjust="spacing" textLength="72.9167" x="1942.7083" y="377.7486">&#171;Database&#187;</text><text fill="#FFFFFF" font-family="Verdana" font-size="11.4583" lengthAdjust="spacing" textLength="91.6667" x="1933.3333" y="401.7492">SqliteDatabase</text><line style="stroke:#EC7211;stroke-width:1.0416666666666667;" x1="1901.0417" x2="2032.2917" y1="414.8682" y2="414.8682"/><rect fill="none" height="6.25" style="stroke:#C82930;stroke-width:1.0416666666666667;" width="6.25" x="1908.3333" y="429.3498"/><text fill="#FFFFFF" font-family="Verdana" font-size="11.4583" lengthAdjust="spacing" textLength="37.5" x="1925" y="434.879">Topics</text><rect fill="none" height="6.25" style="stroke:#C82930;stroke-width:1.0416666666666667;" width="6.25" x="1908.3333" y="453.1047"/><text fill="#FFFFFF" font-family="Verdana" font-size="11.4583" lengthAdjust="spacing" textLength="34.375" x="1925" y="458.6339">Votes</text><rect fill="none" height="6.25" style="stroke:#C82930;stroke-width:1.0416666666666667;" width="6.25" x="1908.3333" y="476.8595"/><text fill="#FFFFFF" font-family="Verdana" font-size="11.4583" lengthAdjust="spacing" textLength="33.3333" x="1925" y="482.3888">Users</text><rect fill="none" height="6.25" style="stroke:#C82930;stroke-width:1.0416666666666667;" width="6.25" x="1908.3333" y="500.6144"/><text fill="#FFFFFF" font-family="Verdana" font-size="11.4583" lengthAdjust="spacing" textLength="41.6667" x="1925" y="506.1437">Groups</text><line style="stroke:#EC7211;stroke-width:1.0416666666666667;" x1="1901.0417" x2="2032.2917" y1="518.221" y2="518.221"/></g><!--class TopicModel--><g id="elem_TopicModel"><rect codeLine="56" fill="url(#g1mjyspxg2s0dt0)" height="289.5996" id="TopicModel" rx="4.1667" ry="4.1667" style="stroke:#EC7211;stroke-width:1.0416666666666667;" width="159.375" x="1886.9792" y="1135.9375"/><rect fill="url(#g1mjyspxg2s0dt0)" height="59.139" rx="4.1667" ry="4.1667" style="stroke:url(#g1mjyspxg2s0dt0);stroke-width:1.0416666666666667;" width="159.375" x="1886.9792" y="1135.9375"/><rect fill="url(#g1mjyspxg2s0dt0)" height="4.1667" style="stroke:url(#g1mjyspxg2s0dt0);stroke-width:1.0416666666666667;" width="159.375" x="1886.9792" y="1190.9098"/><rect codeLine="56" fill="none" height="289.5996" id="TopicModel" rx="4.1667" ry="4.1667" style="stroke:#EC7211;stroke-width:1.0416666666666667;" width="159.375" x="1886.9792" y="1135.9375"/><ellipse cx="1924.5313" cy="1165.507" fill="#81C784" rx="10.4167" ry="10.4167" style="stroke:#181818;stroke-width:1.0416666666666667;"/><path d="M1922.5781,1167.8996 L1922.3991,1167.8996 C1922.0898,1167.8996 1921.9759,1167.9159 1921.862,1167.9972 C1921.6829,1168.0949 1921.569,1168.3228 1921.569,1168.5343 C1921.569,1168.7134 1921.6667,1168.9087 1921.8294,1169.0226 C1921.9271,1169.1203 1922.1061,1169.1528 1922.3991,1169.1528 L1926.0775,1169.1528 C1927.5586,1169.1528 1928.5514,1168.3553 1928.5514,1167.1509 C1928.5514,1166.3696 1928.112,1165.7837 1927.2168,1165.3442 C1927.7702,1164.9211 1928.0143,1164.4979 1928.0143,1163.9282 C1928.0143,1162.7401 1926.9727,1161.8612 1925.5566,1161.8612 L1922.3991,1161.8612 C1922.0898,1161.8612 1921.9759,1161.8774 1921.862,1161.9588 C1921.6992,1162.0728 1921.569,1162.2843 1921.569,1162.4959 C1921.569,1162.675 1921.6667,1162.8703 1921.8294,1163.0005 C1921.9434,1163.0981 1922.0736,1163.1144 1922.3991,1163.1144 L1922.5781,1163.1144 L1922.5781,1167.8996 Z M1923.8314,1164.8722 L1923.8314,1163.1144 L1925.4915,1163.1144 C1926.2891,1163.1144 1926.7611,1163.4074 1926.7611,1163.9119 C1926.7611,1164.4979 1926.1426,1164.8722 1925.2474,1164.8722 L1923.8314,1164.8722 Z M1923.8314,1167.8996 L1923.8314,1166.1255 L1925.5241,1166.1255 C1926.0449,1166.1255 1926.4518,1166.2231 1926.7611,1166.4022 C1927.0866,1166.5975 1927.2982,1166.923 1927.2982,1167.2323 C1927.2982,1167.6717 1926.875,1167.8996 1926.0124,1167.8996 L1923.8314,1167.8996 Z " fill="#000000"/><text fill="#4E5D6C" font-family="Verdana" font-size="12.5" font-style="italic" lengthAdjust="spacing" textLength="68.75" x="1947.3438" y="1157.9569">&#171;Backend&#187;</text><text fill="#FFFFFF" font-family="Verdana" font-size="11.4583" lengthAdjust="spacing" textLength="66.6667" x="1948.3854" y="1181.9575">TopicModel</text><line style="stroke:#EC7211;stroke-width:1.0416666666666667;" x1="1888.0208" x2="2045.3125" y1="1195.0765" y2="1195.0765"/><rect fill="none" height="6.25" style="stroke:#C82930;stroke-width:1.0416666666666667;" width="6.25" x="1895.3125" y="1209.5581"/><text fill="#FFFFFF" font-family="Verdana" font-size="11.4583" lengthAdjust="spacing" textLength="64.5833" x="1911.9792" y="1215.0874">title: String</text><rect fill="none" height="6.25" style="stroke:#C82930;stroke-width:1.0416666666666667;" width="6.25" x="1895.3125" y="1233.313"/><text fill="#FFFFFF" font-family="Verdana" font-size="11.4583" lengthAdjust="spacing" textLength="68.75" x="1911.9792" y="1238.8423">type: String</text><rect fill="none" height="6.25" style="stroke:#C82930;stroke-width:1.0416666666666667;" width="6.25" x="1895.3125" y="1257.0679"/><text fill="#FFFFFF" font-family="Verdana" font-size="11.4583" lengthAdjust="spacing" textLength="92.7083" x="1911.9792" y="1262.5971">question: String</text><rect fill="none" height="6.25" style="stroke:#C82930;stroke-width:1.0416666666666667;" width="6.25" x="1895.3125" y="1280.8228"/><text fill="#FFFFFF" font-family="Verdana" font-size="11.4583" lengthAdjust="spacing" textLength="122.9167" x="1911.9792" y="1286.352">options: List&lt;String&gt;</text><rect fill="none" height="6.25" style="stroke:#C82930;stroke-width:1.0416666666666667;" width="6.25" x="1895.3125" y="1304.5776"/><text fill="#FFFFFF" font-family="Verdana" font-size="11.4583" lengthAdjust="spacing" textLength="67.7083" x="1911.9792" y="1310.1069">user: String</text><rect fill="none" height="6.25" style="stroke:#C82930;stroke-width:1.0416666666666667;" width="6.25" x="1895.3125" y="1328.3325"/><text fill="#FFFFFF" font-family="Verdana" font-size="11.4583" lengthAdjust="spacing" textLength="110.4167" x="1911.9792" y="1333.8618">groupName: String</text><rect fill="none" height="6.25" style="stroke:#C82930;stroke-width:1.0416666666666667;" width="6.25" x="1895.3125" y="1352.0874"/><text fill="#FFFFFF" font-family="Verdana" font-size="11.4583" lengthAdjust="spacing" textLength="96.875" x="1911.9792" y="1357.6167">closeDate: Date</text><rect fill="none" height="6.25" style="stroke:#C82930;stroke-width:1.0416666666666667;" width="6.25" x="1895.3125" y="1375.8423"/><text fill="#FFFFFF" font-family="Verdana" font-size="11.4583" lengthAdjust="spacing" textLength="52.0833" x="1911.9792" y="1381.3716">visits: int</text><rect fill="none" height="6.25" style="stroke:#C82930;stroke-width:1.0416666666666667;" width="6.25" x="1895.3125" y="1399.5972"/><text fill="#FFFFFF" font-family="Verdana" font-size="11.4583" lengthAdjust="spacing" textLength="90.625" x="1911.9792" y="1405.1264">status: boolean</text><line style="stroke:#EC7211;stroke-width:1.0416666666666667;" x1="1888.0208" x2="2045.3125" y1="1417.2038" y2="1417.2038"/></g><!--class TopicDao--><g id="elem_TopicDao"><rect codeLine="68" fill="url(#g1mjyspxg2s0dt0)" height="313.3545" id="TopicDao" rx="4.1667" ry="4.1667" style="stroke:#EC7211;stroke-width:1.0416666666666667;" width="368.75" x="1782.2917" y="711.4583"/><rect fill="url(#g1mjyspxg2s0dt0)" height="59.139" rx="4.1667" ry="4.1667" style="stroke:url(#g1mjyspxg2s0dt0);stroke-width:1.0416666666666667;" width="368.75" x="1782.2917" y="711.4583"/><rect fill="url(#g1mjyspxg2s0dt0)" height="4.1667" style="stroke:url(#g1mjyspxg2s0dt0);stroke-width:1.0416666666666667;" width="368.75" x="1782.2917" y="766.4307"/><rect codeLine="68" fill="none" height="313.3545" id="TopicDao" rx="4.1667" ry="4.1667" style="stroke:#EC7211;stroke-width:1.0416666666666667;" width="368.75" x="1782.2917" y="711.4583"/><ellipse cx="1925" cy="741.0278" fill="#81C784" rx="10.4167" ry="10.4167" style="stroke:#181818;stroke-width:1.0416666666666667;"/><path d="M1923.0469,743.4204 L1922.8678,743.4204 C1922.5586,743.4204 1922.4447,743.4367 1922.3307,743.5181 C1922.1517,743.6157 1922.0378,743.8436 1922.0378,744.0552 C1922.0378,744.2342 1922.1354,744.4295 1922.2982,744.5435 C1922.3958,744.6411 1922.5749,744.6737 1922.8678,744.6737 L1926.5462,744.6737 C1928.0273,744.6737 1929.0202,743.8761 1929.0202,742.6717 C1929.0202,741.8905 1928.5807,741.3045 1927.6855,740.8651 C1928.2389,740.4419 1928.4831,740.0187 1928.4831,739.4491 C1928.4831,738.2609 1927.4414,737.382 1926.0254,737.382 L1922.8678,737.382 C1922.5586,737.382 1922.4447,737.3983 1922.3307,737.4797 C1922.168,737.5936 1922.0378,737.8052 1922.0378,738.0168 C1922.0378,738.1958 1922.1354,738.3911 1922.2982,738.5213 C1922.4121,738.619 1922.5423,738.6353 1922.8678,738.6353 L1923.0469,738.6353 L1923.0469,743.4204 Z M1924.3001,740.3931 L1924.3001,738.6353 L1925.9603,738.6353 C1926.7578,738.6353 1927.2298,738.9282 1927.2298,739.4328 C1927.2298,740.0187 1926.6113,740.3931 1925.7161,740.3931 L1924.3001,740.3931 Z M1924.3001,743.4204 L1924.3001,741.6463 L1925.9928,741.6463 C1926.5137,741.6463 1926.9206,741.744 1927.2298,741.923 C1927.5553,742.1183 1927.7669,742.4438 1927.7669,742.7531 C1927.7669,743.1925 1927.3438,743.4204 1926.4811,743.4204 L1924.3001,743.4204 Z " fill="#000000"/><text fill="#4E5D6C" font-family="Verdana" font-size="12.5" font-style="italic" lengthAdjust="spacing" textLength="68.75" x="1947.9167" y="733.4778">&#171;Backend&#187;</text><text fill="#FFFFFF" font-family="Verdana" font-size="11.4583" lengthAdjust="spacing" textLength="55.2083" x="1954.6875" y="757.4783">TopicDao</text><line style="stroke:#EC7211;stroke-width:1.0416666666666667;" x1="1783.3333" x2="2150" y1="770.5973" y2="770.5973"/><text fill="#FFFFFF" font-family="Verdana" font-size="11.4583" lengthAdjust="spacing" textLength="318.75" x="1793.75" y="790.6082">options: List&lt;String&gt;, user: String, groupName: String,</text><text fill="#FFFFFF" font-family="Verdana" font-size="11.4583" lengthAdjust="spacing" textLength="318.75" x="1793.75" y="814.3631">options: List&lt;String&gt;, user: String, groupName: String,</text><line style="stroke:#EC7211;stroke-width:1.0416666666666667;" x1="1783.3333" x2="2150" y1="826.4404" y2="826.4404"/><ellipse cx="1793.75" cy="844.047" fill="#84BE84" rx="3.125" ry="3.125" style="stroke:#038048;stroke-width:1.0416666666666667;"/><text fill="#FFFFFF" font-family="Verdana" font-size="11.4583" lengthAdjust="spacing" textLength="183.3333" x="1807.2917" y="846.4513">loadTopics(): List&lt;TopicModel&gt;</text><ellipse cx="1793.75" cy="867.8019" fill="#84BE84" rx="3.125" ry="3.125" style="stroke:#038048;stroke-width:1.0416666666666667;"/><text fill="#FFFFFF" font-family="Verdana" font-size="11.4583" lengthAdjust="spacing" textLength="317.7083" x="1807.2917" y="870.2062">createTopic(title: String, type: String, question: String,</text><text fill="#FFFFFF" font-family="Verdana" font-size="11.4583" lengthAdjust="spacing" textLength="332.2917" x="1807.2917" y="893.9611">groupMembers: List&lt;String&gt;, closeDate: Date): boolean</text><ellipse cx="1793.75" cy="915.3117" fill="#84BE84" rx="3.125" ry="3.125" style="stroke:#038048;stroke-width:1.0416666666666667;"/><text fill="#FFFFFF" font-family="Verdana" font-size="11.4583" lengthAdjust="spacing" textLength="302.0833" x="1807.2917" y="917.716">editTopic(title: String, type: String, question: String,</text><text fill="#FFFFFF" font-family="Verdana" font-size="11.4583" lengthAdjust="spacing" textLength="332.2917" x="1807.2917" y="941.4708">groupMembers: List&lt;String&gt;, closeDate: Date): boolean</text><ellipse cx="1793.75" cy="962.8215" fill="#84BE84" rx="3.125" ry="3.125" style="stroke:#038048;stroke-width:1.0416666666666667;"/><text fill="#FFFFFF" font-family="Verdana" font-size="11.4583" lengthAdjust="spacing" textLength="126.0417" x="1807.2917" y="965.2257">closeTopic(): boolean</text><ellipse cx="1793.75" cy="986.5763" fill="#84BE84" rx="3.125" ry="3.125" style="stroke:#038048;stroke-width:1.0416666666666667;"/><text fill="#FFFFFF" font-family="Verdana" font-size="11.4583" lengthAdjust="spacing" textLength="134.375" x="1807.2917" y="988.9806">deleteTopic(): boolean</text><ellipse cx="1793.75" cy="1010.3312" fill="#84BE84" rx="3.125" ry="3.125" style="stroke:#038048;stroke-width:1.0416666666666667;"/><text fill="#FFFFFF" font-family="Verdana" font-size="11.4583" lengthAdjust="spacing" textLength="102.0833" x="1807.2917" y="1012.7355">sendEmail(): void</text></g><!--class TopicDaoImpl--><g id="elem_TopicDaoImpl"><rect codeLine="81" fill="url(#g1mjyspxg2s0dt0)" height="313.3545" id="TopicDaoImpl" rx="4.1667" ry="4.1667" style="stroke:#EC7211;stroke-width:1.0416666666666667;" width="368.75" x="1350" y="785.4167"/><rect fill="url(#g1mjyspxg2s0dt0)" height="59.139" rx="4.1667" ry="4.1667" style="stroke:url(#g1mjyspxg2s0dt0);stroke-width:1.0416666666666667;" width="368.75" x="1350" y="785.4167"/><rect fill="url(#g1mjyspxg2s0dt0)" height="4.1667" style="stroke:url(#g1mjyspxg2s0dt0);stroke-width:1.0416666666666667;" width="368.75" x="1350" y="840.389"/><rect codeLine="81" fill="none" height="313.3545" id="TopicDaoImpl" rx="4.1667" ry="4.1667" style="stroke:#EC7211;stroke-width:1.0416666666666667;" width="368.75" x="1350" y="785.4167"/><ellipse cx="1484.8958" cy="814.9862" fill="#81C784" rx="10.4167" ry="10.4167" style="stroke:#181818;stroke-width:1.0416666666666667;"/><path d="M1482.9427,817.3787 L1482.7637,817.3787 C1482.4544,817.3787 1482.3405,817.395 1482.2266,817.4764 C1482.0475,817.5741 1481.9336,817.8019 1481.9336,818.0135 C1481.9336,818.1925 1482.0313,818.3879 1482.194,818.5018 C1482.2917,818.5994 1482.4707,818.632 1482.7637,818.632 L1486.4421,818.632 C1487.9232,818.632 1488.916,817.8345 1488.916,816.63 C1488.916,815.8488 1488.4766,815.2629 1487.5814,814.8234 C1488.1348,814.4002 1488.3789,813.9771 1488.3789,813.4074 C1488.3789,812.2192 1487.3372,811.3403 1485.9212,811.3403 L1482.7637,811.3403 C1482.4544,811.3403 1482.3405,811.3566 1482.2266,811.438 C1482.0638,811.5519 1481.9336,811.7635 1481.9336,811.9751 C1481.9336,812.1541 1482.0313,812.3494 1482.194,812.4797 C1482.3079,812.5773 1482.4382,812.5936 1482.7637,812.5936 L1482.9427,812.5936 L1482.9427,817.3787 Z M1484.196,814.3514 L1484.196,812.5936 L1485.8561,812.5936 C1486.6536,812.5936 1487.1257,812.8866 1487.1257,813.3911 C1487.1257,813.9771 1486.5072,814.3514 1485.612,814.3514 L1484.196,814.3514 Z M1484.196,817.3787 L1484.196,815.6047 L1485.8887,815.6047 C1486.4095,815.6047 1486.8164,815.7023 1487.1257,815.8813 C1487.4512,816.0767 1487.6628,816.4022 1487.6628,816.7114 C1487.6628,817.1509 1487.2396,817.3787 1486.377,817.3787 L1484.196,817.3787 Z " fill="#000000"/><text fill="#4E5D6C" font-family="Verdana" font-size="12.5" font-style="italic" lengthAdjust="spacing" textLength="68.75" x="1515.625" y="807.4361">&#171;Backend&#187;</text><text fill="#FFFFFF" font-family="Verdana" font-size="11.4583" lengthAdjust="spacing" textLength="80.2083" x="1509.8958" y="831.4367">TopicDaoImpl</text><line style="stroke:#EC7211;stroke-width:1.0416666666666667;" x1="1351.0417" x2="1717.7083" y1="844.5557" y2="844.5557"/><text fill="#FFFFFF" font-family="Verdana" font-size="11.4583" lengthAdjust="spacing" textLength="318.75" x="1361.4583" y="864.5665">options: List&lt;String&gt;, user: String, groupName: String,</text><text fill="#FFFFFF" font-family="Verdana" font-size="11.4583" lengthAdjust="spacing" textLength="318.75" x="1361.4583" y="888.3214">options: List&lt;String&gt;, user: String, groupName: String,</text><line style="stroke:#EC7211;stroke-width:1.0416666666666667;" x1="1351.0417" x2="1717.7083" y1="900.3988" y2="900.3988"/><ellipse cx="1361.4583" cy="918.0054" fill="#84BE84" rx="3.125" ry="3.125" style="stroke:#038048;stroke-width:1.0416666666666667;"/><text fill="#FFFFFF" font-family="Verdana" font-size="11.4583" lengthAdjust="spacing" textLength="183.3333" x="1375" y="920.4096">loadTopics(): List&lt;TopicModel&gt;</text><ellipse cx="1361.4583" cy="941.7603" fill="#84BE84" rx="3.125" ry="3.125" style="stroke:#038048;stroke-width:1.0416666666666667;"/><text fill="#FFFFFF" font-family="Verdana" font-size="11.4583" lengthAdjust="spacing" textLength="317.7083" x="1375" y="944.1645">createTopic(title: String, type: String, question: String,</text><text fill="#FFFFFF" font-family="Verdana" font-size="11.4583" lengthAdjust="spacing" textLength="332.2917" x="1375" y="967.9194">groupMembers: List&lt;String&gt;, closeDate: Date): boolean</text><ellipse cx="1361.4583" cy="989.27" fill="#84BE84" rx="3.125" ry="3.125" style="stroke:#038048;stroke-width:1.0416666666666667;"/><text fill="#FFFFFF" font-family="Verdana" font-size="11.4583" lengthAdjust="spacing" textLength="302.0833" x="1375" y="991.6743">editTopic(title: String, type: String, question: String,</text><text fill="#FFFFFF" font-family="Verdana" font-size="11.4583" lengthAdjust="spacing" textLength="332.2917" x="1375" y="1015.4292">groupMembers: List&lt;String&gt;, closeDate: Date): boolean</text><ellipse cx="1361.4583" cy="1036.7798" fill="#84BE84" rx="3.125" ry="3.125" style="stroke:#038048;stroke-width:1.0416666666666667;"/><text fill="#FFFFFF" font-family="Verdana" font-size="11.4583" lengthAdjust="spacing" textLength="126.0417" x="1375" y="1039.1841">closeTopic(): boolean</text><ellipse cx="1361.4583" cy="1060.5347" fill="#84BE84" rx="3.125" ry="3.125" style="stroke:#038048;stroke-width:1.0416666666666667;"/><text fill="#FFFFFF" font-family="Verdana" font-size="11.4583" lengthAdjust="spacing" textLength="134.375" x="1375" y="1062.9389">deleteTopic(): boolean</text><ellipse cx="1361.4583" cy="1084.2896" fill="#84BE84" rx="3.125" ry="3.125" style="stroke:#038048;stroke-width:1.0416666666666667;"/><text fill="#FFFFFF" font-family="Verdana" font-size="11.4583" lengthAdjust="spacing" textLength="102.0833" x="1375" y="1086.6938">sendEmail(): void</text></g><!--class VotingModel--><g id="elem_VotingModel"><rect codeLine="94" fill="url(#g1mjyspxg2s0dt0)" height="170.8252" id="VotingModel" rx="4.1667" ry="4.1667" style="stroke:#EC7211;stroke-width:1.0416666666666667;" width="143.75" x="3180.7292" y="1067.1875"/><rect fill="url(#g1mjyspxg2s0dt0)" height="59.139" rx="4.1667" ry="4.1667" style="stroke:url(#g1mjyspxg2s0dt0);stroke-width:1.0416666666666667;" width="143.75" x="3180.7292" y="1067.1875"/><rect fill="url(#g1mjyspxg2s0dt0)" height="4.1667" style="stroke:url(#g1mjyspxg2s0dt0);stroke-width:1.0416666666666667;" width="143.75" x="3180.7292" y="1122.1598"/><rect codeLine="94" fill="none" height="170.8252" id="VotingModel" rx="4.1667" ry="4.1667" style="stroke:#EC7211;stroke-width:1.0416666666666667;" width="143.75" x="3180.7292" y="1067.1875"/><ellipse cx="3208.4375" cy="1096.757" fill="#81C784" rx="10.4167" ry="10.4167" style="stroke:#181818;stroke-width:1.0416666666666667;"/><path d="M3206.4844,1099.1496 L3206.3053,1099.1496 C3205.9961,1099.1496 3205.8822,1099.1659 3205.7682,1099.2472 C3205.5892,1099.3449 3205.4753,1099.5728 3205.4753,1099.7843 C3205.4753,1099.9634 3205.5729,1100.1587 3205.7357,1100.2726 C3205.8333,1100.3703 3206.0124,1100.4028 3206.3053,1100.4028 L3209.9837,1100.4028 C3211.4648,1100.4028 3212.4577,1099.6053 3212.4577,1098.4009 C3212.4577,1097.6196 3212.0182,1097.0337 3211.123,1096.5942 C3211.6764,1096.1711 3211.9206,1095.7479 3211.9206,1095.1782 C3211.9206,1093.9901 3210.8789,1093.1112 3209.4629,1093.1112 L3206.3053,1093.1112 C3205.9961,1093.1112 3205.8822,1093.1274 3205.7682,1093.2088 C3205.6055,1093.3228 3205.4753,1093.5343 3205.4753,1093.7459 C3205.4753,1093.925 3205.5729,1094.1203 3205.7357,1094.2505 C3205.8496,1094.3481 3205.9798,1094.3644 3206.3053,1094.3644 L3206.4844,1094.3644 L3206.4844,1099.1496 Z M3207.7376,1096.1222 L3207.7376,1094.3644 L3209.3978,1094.3644 C3210.1953,1094.3644 3210.6673,1094.6574 3210.6673,1095.1619 C3210.6673,1095.7479 3210.0488,1096.1222 3209.1536,1096.1222 L3207.7376,1096.1222 Z M3207.7376,1099.1496 L3207.7376,1097.3755 L3209.4303,1097.3755 C3209.9512,1097.3755 3210.3581,1097.4731 3210.6673,1097.6522 C3210.9928,1097.8475 3211.2044,1098.173 3211.2044,1098.4823 C3211.2044,1098.9217 3210.7813,1099.1496 3209.9186,1099.1496 L3207.7376,1099.1496 Z " fill="#000000"/><text fill="#4E5D6C" font-family="Verdana" font-size="12.5" font-style="italic" lengthAdjust="spacing" textLength="68.75" x="3232.1875" y="1089.2069">&#171;Backend&#187;</text><text fill="#FFFFFF" font-family="Verdana" font-size="11.4583" lengthAdjust="spacing" textLength="72.9167" x="3230.1042" y="1113.2075">VotingModel</text><line style="stroke:#EC7211;stroke-width:1.0416666666666667;" x1="3181.7708" x2="3323.4375" y1="1126.3265" y2="1126.3265"/><rect fill="none" height="6.25" style="stroke:#C82930;stroke-width:1.0416666666666667;" width="6.25" x="3189.0625" y="1140.8081"/><text fill="#FFFFFF" font-family="Verdana" font-size="11.4583" lengthAdjust="spacing" textLength="95.8333" x="3205.7292" y="1146.3374">topicTitle: String</text><rect fill="none" height="6.25" style="stroke:#C82930;stroke-width:1.0416666666666667;" width="6.25" x="3189.0625" y="1164.563"/><text fill="#FFFFFF" font-family="Verdana" font-size="11.4583" lengthAdjust="spacing" textLength="79.1667" x="3205.7292" y="1170.0923">author: String</text><rect fill="none" height="6.25" style="stroke:#C82930;stroke-width:1.0416666666666667;" width="6.25" x="3189.0625" y="1188.3179"/><text fill="#FFFFFF" font-family="Verdana" font-size="11.4583" lengthAdjust="spacing" textLength="84.375" x="3205.7292" y="1193.8471">options: String</text><rect fill="none" height="6.25" style="stroke:#C82930;stroke-width:1.0416666666666667;" width="6.25" x="3189.0625" y="1212.0728"/><text fill="#FFFFFF" font-family="Verdana" font-size="11.4583" lengthAdjust="spacing" textLength="107.2917" x="3205.7292" y="1217.602">haveVoted: String</text><line style="stroke:#EC7211;stroke-width:1.0416666666666667;" x1="3181.7708" x2="3323.4375" y1="1229.6794" y2="1229.6794"/></g><!--class VotingDao--><g id="elem_VotingDao"><rect codeLine="101" fill="url(#g1mjyspxg2s0dt0)" height="147.0703" id="VotingDao" rx="4.1667" ry="4.1667" style="stroke:#EC7211;stroke-width:1.0416666666666667;" width="293.75" x="2269.7917" y="587.5"/><rect fill="url(#g1mjyspxg2s0dt0)" height="59.139" rx="4.1667" ry="4.1667" style="stroke:url(#g1mjyspxg2s0dt0);stroke-width:1.0416666666666667;" width="293.75" x="2269.7917" y="587.5"/><rect fill="url(#g1mjyspxg2s0dt0)" height="4.1667" style="stroke:url(#g1mjyspxg2s0dt0);stroke-width:1.0416666666666667;" width="293.75" x="2269.7917" y="642.4723"/><rect codeLine="101" fill="none" height="147.0703" id="VotingDao" rx="4.1667" ry="4.1667" style="stroke:#EC7211;stroke-width:1.0416666666666667;" width="293.75" x="2269.7917" y="587.5"/><ellipse cx="2375" cy="617.0695" fill="#81C784" rx="10.4167" ry="10.4167" style="stroke:#181818;stroke-width:1.0416666666666667;"/><path d="M2373.0469,619.4621 L2372.8678,619.4621 C2372.5586,619.4621 2372.4447,619.4784 2372.3307,619.5597 C2372.1517,619.6574 2372.0378,619.8853 2372.0378,620.0968 C2372.0378,620.2759 2372.1354,620.4712 2372.2982,620.5851 C2372.3958,620.6828 2372.5749,620.7153 2372.8678,620.7153 L2376.5462,620.7153 C2378.0273,620.7153 2379.0202,619.9178 2379.0202,618.7134 C2379.0202,617.9321 2378.5807,617.3462 2377.6855,616.9067 C2378.2389,616.4836 2378.4831,616.0604 2378.4831,615.4907 C2378.4831,614.3026 2377.4414,613.4237 2376.0254,613.4237 L2372.8678,613.4237 C2372.5586,613.4237 2372.4447,613.4399 2372.3307,613.5213 C2372.168,613.6353 2372.0378,613.8468 2372.0378,614.0584 C2372.0378,614.2375 2372.1354,614.4328 2372.2982,614.563 C2372.4121,614.6606 2372.5423,614.6769 2372.8678,614.6769 L2373.0469,614.6769 L2373.0469,619.4621 Z M2374.3001,616.4347 L2374.3001,614.6769 L2375.9603,614.6769 C2376.7578,614.6769 2377.2298,614.9699 2377.2298,615.4744 C2377.2298,616.0604 2376.6113,616.4347 2375.7161,616.4347 L2374.3001,616.4347 Z M2374.3001,619.4621 L2374.3001,617.688 L2375.9928,617.688 C2376.5137,617.688 2376.9206,617.7856 2377.2298,617.9647 C2377.5553,618.16 2377.7669,618.4855 2377.7669,618.7948 C2377.7669,619.2342 2377.3438,619.4621 2376.4811,619.4621 L2374.3001,619.4621 Z " fill="#000000"/><text fill="#4E5D6C" font-family="Verdana" font-size="12.5" font-style="italic" lengthAdjust="spacing" textLength="68.75" x="2397.9167" y="609.5194">&#171;Backend&#187;</text><text fill="#FFFFFF" font-family="Verdana" font-size="11.4583" lengthAdjust="spacing" textLength="61.4583" x="2401.5625" y="633.52">VotingDao</text><line style="stroke:#EC7211;stroke-width:1.0416666666666667;" x1="2270.8333" x2="2562.5" y1="646.639" y2="646.639"/><line style="stroke:#EC7211;stroke-width:1.0416666666666667;" x1="2270.8333" x2="2562.5" y1="654.9723" y2="654.9723"/><ellipse cx="2281.25" cy="672.5789" fill="#84BE84" rx="3.125" ry="3.125" style="stroke:#038048;stroke-width:1.0416666666666667;"/><text fill="#FFFFFF" font-family="Verdana" font-size="11.4583" lengthAdjust="spacing" textLength="247.9167" x="2294.7917" y="674.9832">voteTopic(topicTitle: String, author: String,</text><text fill="#FFFFFF" font-family="Verdana" font-size="11.4583" lengthAdjust="spacing" textLength="257.2917" x="2294.7917" y="698.7381">options: List&lt;String&gt;, user: String): boolean</text><ellipse cx="2281.25" cy="720.0887" fill="#84BE84" rx="3.125" ry="3.125" style="stroke:#038048;stroke-width:1.0416666666666667;"/><text fill="#FFFFFF" font-family="Verdana" font-size="11.4583" lengthAdjust="spacing" textLength="235.4167" x="2294.7917" y="722.493">votingResults(user: String): List&lt;String&gt;</text></g><!--class VotingDaoImpl--><g id="elem_VotingDaoImpl"><rect codeLine="107" fill="url(#g1mjyspxg2s0dt0)" height="147.0703" id="VotingDaoImpl" rx="4.1667" ry="4.1667" style="stroke:#EC7211;stroke-width:1.0416666666666667;" width="293.75" x="2737.5" y="1079.1667"/><rect fill="url(#g1mjyspxg2s0dt0)" height="59.139" rx="4.1667" ry="4.1667" style="stroke:url(#g1mjyspxg2s0dt0);stroke-width:1.0416666666666667;" width="293.75" x="2737.5" y="1079.1667"/><rect fill="url(#g1mjyspxg2s0dt0)" height="4.1667" style="stroke:url(#g1mjyspxg2s0dt0);stroke-width:1.0416666666666667;" width="293.75" x="2737.5" y="1134.139"/><rect codeLine="107" fill="none" height="147.0703" id="VotingDaoImpl" rx="4.1667" ry="4.1667" style="stroke:#EC7211;stroke-width:1.0416666666666667;" width="293.75" x="2737.5" y="1079.1667"/><ellipse cx="2831.7708" cy="1108.7362" fill="#81C784" rx="10.4167" ry="10.4167" style="stroke:#181818;stroke-width:1.0416666666666667;"/><path d="M2829.8177,1111.1287 L2829.6387,1111.1287 C2829.3294,1111.1287 2829.2155,1111.145 2829.1016,1111.2264 C2828.9225,1111.3241 2828.8086,1111.5519 2828.8086,1111.7635 C2828.8086,1111.9425 2828.9063,1112.1379 2829.069,1112.2518 C2829.1667,1112.3494 2829.3457,1112.382 2829.6387,1112.382 L2833.3171,1112.382 C2834.7982,1112.382 2835.791,1111.5845 2835.791,1110.38 C2835.791,1109.5988 2835.3516,1109.0129 2834.4564,1108.5734 C2835.0098,1108.1502 2835.2539,1107.7271 2835.2539,1107.1574 C2835.2539,1105.9692 2834.2122,1105.0903 2832.7962,1105.0903 L2829.6387,1105.0903 C2829.3294,1105.0903 2829.2155,1105.1066 2829.1016,1105.188 C2828.9388,1105.3019 2828.8086,1105.5135 2828.8086,1105.7251 C2828.8086,1105.9041 2828.9063,1106.0994 2829.069,1106.2297 C2829.1829,1106.3273 2829.3132,1106.3436 2829.6387,1106.3436 L2829.8177,1106.3436 L2829.8177,1111.1287 Z M2831.071,1108.1014 L2831.071,1106.3436 L2832.7311,1106.3436 C2833.5286,1106.3436 2834.0007,1106.6366 2834.0007,1107.1411 C2834.0007,1107.7271 2833.3822,1108.1014 2832.487,1108.1014 L2831.071,1108.1014 Z M2831.071,1111.1287 L2831.071,1109.3547 L2832.7637,1109.3547 C2833.2845,1109.3547 2833.6914,1109.4523 2834.0007,1109.6313 C2834.3262,1109.8267 2834.5378,1110.1522 2834.5378,1110.4614 C2834.5378,1110.9009 2834.1146,1111.1287 2833.252,1111.1287 L2831.071,1111.1287 Z " fill="#000000"/><text fill="#4E5D6C" font-family="Verdana" font-size="12.5" font-style="italic" lengthAdjust="spacing" textLength="68.75" x="2865.625" y="1101.1861">&#171;Backend&#187;</text><text fill="#FFFFFF" font-family="Verdana" font-size="11.4583" lengthAdjust="spacing" textLength="86.4583" x="2856.7708" y="1125.1867">VotingDaoImpl</text><line style="stroke:#EC7211;stroke-width:1.0416666666666667;" x1="2738.5417" x2="3030.2083" y1="1138.3057" y2="1138.3057"/><line style="stroke:#EC7211;stroke-width:1.0416666666666667;" x1="2738.5417" x2="3030.2083" y1="1146.639" y2="1146.639"/><ellipse cx="2748.9583" cy="1164.2456" fill="#84BE84" rx="3.125" ry="3.125" style="stroke:#038048;stroke-width:1.0416666666666667;"/><text fill="#FFFFFF" font-family="Verdana" font-size="11.4583" lengthAdjust="spacing" textLength="247.9167" x="2762.5" y="1166.6499">voteTopic(topicTitle: String, author: String,</text><text fill="#FFFFFF" font-family="Verdana" font-size="11.4583" lengthAdjust="spacing" textLength="257.2917" x="2762.5" y="1190.4048">options: List&lt;String&gt;, user: String): boolean</text><ellipse cx="2748.9583" cy="1211.7554" fill="#84BE84" rx="3.125" ry="3.125" style="stroke:#038048;stroke-width:1.0416666666666667;"/><text fill="#FFFFFF" font-family="Verdana" font-size="11.4583" lengthAdjust="spacing" textLength="235.4167" x="2762.5" y="1214.1596">votingResults(user: String): List&lt;String&gt;</text></g><!--class UserModel--><g id="elem_UserModel"><rect codeLine="113" fill="url(#g1mjyspxg2s0dt0)" height="147.0703" id="UserModel" rx="4.1667" ry="4.1667" style="stroke:#EC7211;stroke-width:1.0416666666666667;" width="133.3333" x="3185.9375" y="7.2917"/><rect fill="url(#g1mjyspxg2s0dt0)" height="59.139" rx="4.1667" ry="4.1667" style="stroke:url(#g1mjyspxg2s0dt0);stroke-width:1.0416666666666667;" width="133.3333" x="3185.9375" y="7.2917"/><rect fill="url(#g1mjyspxg2s0dt0)" height="4.1667" style="stroke:url(#g1mjyspxg2s0dt0);stroke-width:1.0416666666666667;" width="133.3333" x="3185.9375" y="62.264"/><rect codeLine="113" fill="none" height="147.0703" id="UserModel" rx="4.1667" ry="4.1667" style="stroke:#EC7211;stroke-width:1.0416666666666667;" width="133.3333" x="3185.9375" y="7.2917"/><ellipse cx="3212.7083" cy="36.8612" fill="#81C784" rx="10.4167" ry="10.4167" style="stroke:#181818;stroke-width:1.0416666666666667;"/><path d="M3210.7552,39.2537 L3210.5762,39.2537 C3210.2669,39.2537 3210.153,39.27 3210.0391,39.3514 C3209.86,39.4491 3209.7461,39.6769 3209.7461,39.8885 C3209.7461,40.0675 3209.8438,40.2629 3210.0065,40.3768 C3210.1042,40.4744 3210.2832,40.507 3210.5762,40.507 L3214.2546,40.507 C3215.7357,40.507 3216.7285,39.7095 3216.7285,38.505 C3216.7285,37.7238 3216.2891,37.1379 3215.3939,36.6984 C3215.9473,36.2752 3216.1914,35.8521 3216.1914,35.2824 C3216.1914,34.0942 3215.1497,33.2153 3213.7337,33.2153 L3210.5762,33.2153 C3210.2669,33.2153 3210.153,33.2316 3210.0391,33.313 C3209.8763,33.4269 3209.7461,33.6385 3209.7461,33.8501 C3209.7461,34.0291 3209.8438,34.2244 3210.0065,34.3547 C3210.1204,34.4523 3210.2507,34.4686 3210.5762,34.4686 L3210.7552,34.4686 L3210.7552,39.2537 Z M3212.0085,36.2264 L3212.0085,34.4686 L3213.6686,34.4686 C3214.4661,34.4686 3214.9382,34.7616 3214.9382,35.2661 C3214.9382,35.8521 3214.3197,36.2264 3213.4245,36.2264 L3212.0085,36.2264 Z M3212.0085,39.2537 L3212.0085,37.4797 L3213.7012,37.4797 C3214.222,37.4797 3214.6289,37.5773 3214.9382,37.7563 C3215.2637,37.9517 3215.4753,38.2772 3215.4753,38.5864 C3215.4753,39.0259 3215.0521,39.2537 3214.1895,39.2537 L3212.0085,39.2537 Z " fill="#000000"/><text fill="#4E5D6C" font-family="Verdana" font-size="12.5" font-style="italic" lengthAdjust="spacing" textLength="68.75" x="3232.0833" y="29.3111">&#171;Backend&#187;</text><text fill="#FFFFFF" font-family="Verdana" font-size="11.4583" lengthAdjust="spacing" textLength="62.5" x="3235.2083" y="53.3117">UserModel</text><line style="stroke:#EC7211;stroke-width:1.0416666666666667;" x1="3186.9792" x2="3318.2292" y1="66.4307" y2="66.4307"/><rect fill="none" height="6.25" style="stroke:#C82930;stroke-width:1.0416666666666667;" width="6.25" x="3194.2708" y="80.9123"/><text fill="#FFFFFF" font-family="Verdana" font-size="11.4583" lengthAdjust="spacing" textLength="67.7083" x="3210.9375" y="86.4415">user: String</text><rect fill="none" height="6.25" style="stroke:#C82930;stroke-width:1.0416666666666667;" width="6.25" x="3194.2708" y="104.6672"/><text fill="#FFFFFF" font-family="Verdana" font-size="11.4583" lengthAdjust="spacing" textLength="96.875" x="3210.9375" y="110.1964">password: String</text><rect fill="none" height="6.25" style="stroke:#C82930;stroke-width:1.0416666666666667;" width="6.25" x="3194.2708" y="128.422"/><text fill="#FFFFFF" font-family="Verdana" font-size="11.4583" lengthAdjust="spacing" textLength="75" x="3210.9375" y="133.9513">email: String</text><line style="stroke:#EC7211;stroke-width:1.0416666666666667;" x1="3186.9792" x2="3318.2292" y1="146.0286" y2="146.0286"/></g><!--class UserDao--><g id="elem_UserDao"><rect codeLine="119" fill="url(#g1mjyspxg2s0dt0)" height="123.3154" id="UserDao" rx="4.1667" ry="4.1667" style="stroke:#EC7211;stroke-width:1.0416666666666667;" width="334.375" x="2249.4792" y="122.3958"/><rect fill="url(#g1mjyspxg2s0dt0)" height="59.139" rx="4.1667" ry="4.1667" style="stroke:url(#g1mjyspxg2s0dt0);stroke-width:1.0416666666666667;" width="334.375" x="2249.4792" y="122.3958"/><rect fill="url(#g1mjyspxg2s0dt0)" height="4.1667" style="stroke:url(#g1mjyspxg2s0dt0);stroke-width:1.0416666666666667;" width="334.375" x="2249.4792" y="177.3682"/><rect codeLine="119" fill="none" height="123.3154" id="UserDao" rx="4.1667" ry="4.1667" style="stroke:#EC7211;stroke-width:1.0416666666666667;" width="334.375" x="2249.4792" y="122.3958"/><ellipse cx="2375" cy="151.9653" fill="#81C784" rx="10.4167" ry="10.4167" style="stroke:#181818;stroke-width:1.0416666666666667;"/><path d="M2373.0469,154.3579 L2372.8678,154.3579 C2372.5586,154.3579 2372.4447,154.3742 2372.3307,154.4556 C2372.1517,154.5532 2372.0378,154.7811 2372.0378,154.9927 C2372.0378,155.1717 2372.1354,155.367 2372.2982,155.481 C2372.3958,155.5786 2372.5749,155.6112 2372.8678,155.6112 L2376.5462,155.6112 C2378.0273,155.6112 2379.0202,154.8136 2379.0202,153.6092 C2379.0202,152.828 2378.5807,152.242 2377.6855,151.8026 C2378.2389,151.3794 2378.4831,150.9562 2378.4831,150.3866 C2378.4831,149.1984 2377.4414,148.3195 2376.0254,148.3195 L2372.8678,148.3195 C2372.5586,148.3195 2372.4447,148.3358 2372.3307,148.4172 C2372.168,148.5311 2372.0378,148.7427 2372.0378,148.9543 C2372.0378,149.1333 2372.1354,149.3286 2372.2982,149.4588 C2372.4121,149.5565 2372.5423,149.5728 2372.8678,149.5728 L2373.0469,149.5728 L2373.0469,154.3579 Z M2374.3001,151.3306 L2374.3001,149.5728 L2375.9603,149.5728 C2376.7578,149.5728 2377.2298,149.8657 2377.2298,150.3703 C2377.2298,150.9562 2376.6113,151.3306 2375.7161,151.3306 L2374.3001,151.3306 Z M2374.3001,154.3579 L2374.3001,152.5838 L2375.9928,152.5838 C2376.5137,152.5838 2376.9206,152.6815 2377.2298,152.8605 C2377.5553,153.0558 2377.7669,153.3813 2377.7669,153.6906 C2377.7669,154.13 2377.3438,154.3579 2376.4811,154.3579 L2374.3001,154.3579 Z " fill="#000000"/><text fill="#4E5D6C" font-family="Verdana" font-size="12.5" font-style="italic" lengthAdjust="spacing" textLength="68.75" x="2397.9167" y="144.4153">&#171;Backend&#187;</text><text fill="#FFFFFF" font-family="Verdana" font-size="11.4583" lengthAdjust="spacing" textLength="51.0417" x="2406.7708" y="168.4158">UserDao</text><line style="stroke:#EC7211;stroke-width:1.0416666666666667;" x1="2250.5208" x2="2582.8125" y1="181.5348" y2="181.5348"/><line style="stroke:#EC7211;stroke-width:1.0416666666666667;" x1="2250.5208" x2="2582.8125" y1="189.8682" y2="189.8682"/><ellipse cx="2260.9375" cy="207.4748" fill="#84BE84" rx="3.125" ry="3.125" style="stroke:#038048;stroke-width:1.0416666666666667;"/><text fill="#FFFFFF" font-family="Verdana" font-size="11.4583" lengthAdjust="spacing" textLength="297.9167" x="2274.4792" y="209.879">login(username: String, password: String): boolean</text><ellipse cx="2260.9375" cy="231.2297" fill="#84BE84" rx="3.125" ry="3.125" style="stroke:#038048;stroke-width:1.0416666666666667;"/><text fill="#FFFFFF" font-family="Verdana" font-size="11.4583" lengthAdjust="spacing" textLength="243.75" x="2274.4792" y="233.6339">getMail(users: List&lt;String&gt;): List&lt;String&gt;</text></g><!--class UserDaoImpl--><g id="elem_UserDaoImpl"><rect codeLine="124" fill="url(#g1mjyspxg2s0dt0)" height="123.3154" id="UserDaoImpl" rx="4.1667" ry="4.1667" style="stroke:#EC7211;stroke-width:1.0416666666666667;" width="334.375" x="2717.1875" y="19.2708"/><rect fill="url(#g1mjyspxg2s0dt0)" height="59.139" rx="4.1667" ry="4.1667" style="stroke:url(#g1mjyspxg2s0dt0);stroke-width:1.0416666666666667;" width="334.375" x="2717.1875" y="19.2708"/><rect fill="url(#g1mjyspxg2s0dt0)" height="4.1667" style="stroke:url(#g1mjyspxg2s0dt0);stroke-width:1.0416666666666667;" width="334.375" x="2717.1875" y="74.2432"/><rect codeLine="124" fill="none" height="123.3154" id="UserDaoImpl" rx="4.1667" ry="4.1667" style="stroke:#EC7211;stroke-width:1.0416666666666667;" width="334.375" x="2717.1875" y="19.2708"/><ellipse cx="2836.9792" cy="48.8403" fill="#81C784" rx="10.4167" ry="10.4167" style="stroke:#181818;stroke-width:1.0416666666666667;"/><path d="M2835.026,51.2329 L2834.847,51.2329 C2834.5378,51.2329 2834.4238,51.2492 2834.3099,51.3306 C2834.1309,51.4282 2834.0169,51.6561 2834.0169,51.8677 C2834.0169,52.0467 2834.1146,52.242 2834.2773,52.356 C2834.375,52.4536 2834.554,52.4862 2834.847,52.4862 L2838.5254,52.4862 C2840.0065,52.4862 2840.9993,51.6886 2840.9993,50.4842 C2840.9993,49.703 2840.5599,49.117 2839.6647,48.6776 C2840.2181,48.2544 2840.4622,47.8312 2840.4622,47.2616 C2840.4622,46.0734 2839.4206,45.1945 2838.0046,45.1945 L2834.847,45.1945 C2834.5378,45.1945 2834.4238,45.2108 2834.3099,45.2922 C2834.1471,45.4061 2834.0169,45.6177 2834.0169,45.8293 C2834.0169,46.0083 2834.1146,46.2036 2834.2773,46.3338 C2834.3913,46.4315 2834.5215,46.4478 2834.847,46.4478 L2835.026,46.4478 L2835.026,51.2329 Z M2836.2793,48.2056 L2836.2793,46.4478 L2837.9395,46.4478 C2838.737,46.4478 2839.209,46.7407 2839.209,47.2453 C2839.209,47.8312 2838.5905,48.2056 2837.6953,48.2056 L2836.2793,48.2056 Z M2836.2793,51.2329 L2836.2793,49.4588 L2837.972,49.4588 C2838.4928,49.4588 2838.8997,49.5565 2839.209,49.7355 C2839.5345,49.9308 2839.7461,50.2563 2839.7461,50.5656 C2839.7461,51.005 2839.3229,51.2329 2838.4603,51.2329 L2836.2793,51.2329 Z " fill="#000000"/><text fill="#4E5D6C" font-family="Verdana" font-size="12.5" font-style="italic" lengthAdjust="spacing" textLength="68.75" x="2865.625" y="41.2903">&#171;Backend&#187;</text><text fill="#FFFFFF" font-family="Verdana" font-size="11.4583" lengthAdjust="spacing" textLength="76.0417" x="2861.9792" y="65.2908">UserDaoImpl</text><line style="stroke:#EC7211;stroke-width:1.0416666666666667;" x1="2718.2292" x2="3050.5208" y1="78.4098" y2="78.4098"/><line style="stroke:#EC7211;stroke-width:1.0416666666666667;" x1="2718.2292" x2="3050.5208" y1="86.7432" y2="86.7432"/><ellipse cx="2728.6458" cy="104.3498" fill="#84BE84" rx="3.125" ry="3.125" style="stroke:#038048;stroke-width:1.0416666666666667;"/><text fill="#FFFFFF" font-family="Verdana" font-size="11.4583" lengthAdjust="spacing" textLength="297.9167" x="2742.1875" y="106.754">login(username: String, password: String): boolean</text><ellipse cx="2728.6458" cy="128.1047" fill="#84BE84" rx="3.125" ry="3.125" style="stroke:#038048;stroke-width:1.0416666666666667;"/><text fill="#FFFFFF" font-family="Verdana" font-size="11.4583" lengthAdjust="spacing" textLength="243.75" x="2742.1875" y="130.5089">getMail(users: List&lt;String&gt;): List&lt;String&gt;</text></g><!--class GroupsModel--><g id="elem_GroupsModel"><rect codeLine="129" fill="url(#g1mjyspxg2s0dt0)" height="147.0703" id="GroupsModel" rx="4.1667" ry="4.1667" style="stroke:#EC7211;stroke-width:1.0416666666666667;" width="205.2083" x="3150" y="227.0833"/><rect fill="url(#g1mjyspxg2s0dt0)" height="59.139" rx="4.1667" ry="4.1667" style="stroke:url(#g1mjyspxg2s0dt0);stroke-width:1.0416666666666667;" width="205.2083" x="3150" y="227.0833"/><rect fill="url(#g1mjyspxg2s0dt0)" height="4.1667" style="stroke:url(#g1mjyspxg2s0dt0);stroke-width:1.0416666666666667;" width="205.2083" x="3150" y="282.0557"/><rect codeLine="129" fill="none" height="147.0703" id="GroupsModel" rx="4.1667" ry="4.1667" style="stroke:#EC7211;stroke-width:1.0416666666666667;" width="205.2083" x="3150" y="227.0833"/><ellipse cx="3204.6875" cy="256.6528" fill="#81C784" rx="10.4167" ry="10.4167" style="stroke:#181818;stroke-width:1.0416666666666667;"/><path d="M3202.7344,259.0454 L3202.5553,259.0454 C3202.2461,259.0454 3202.1322,259.0617 3202.0182,259.1431 C3201.8392,259.2407 3201.7253,259.4686 3201.7253,259.6802 C3201.7253,259.8592 3201.8229,260.0545 3201.9857,260.1685 C3202.0833,260.2661 3202.2624,260.2987 3202.5553,260.2987 L3206.2337,260.2987 C3207.7148,260.2987 3208.7077,259.5011 3208.7077,258.2967 C3208.7077,257.5155 3208.2682,256.9295 3207.373,256.4901 C3207.9264,256.0669 3208.1706,255.6437 3208.1706,255.0741 C3208.1706,253.8859 3207.1289,253.007 3205.7129,253.007 L3202.5553,253.007 C3202.2461,253.007 3202.1322,253.0233 3202.0182,253.1047 C3201.8555,253.2186 3201.7253,253.4302 3201.7253,253.6418 C3201.7253,253.8208 3201.8229,254.0161 3201.9857,254.1463 C3202.0996,254.244 3202.2298,254.2603 3202.5553,254.2603 L3202.7344,254.2603 L3202.7344,259.0454 Z M3203.9876,256.0181 L3203.9876,254.2603 L3205.6478,254.2603 C3206.4453,254.2603 3206.9173,254.5532 3206.9173,255.0578 C3206.9173,255.6437 3206.2988,256.0181 3205.4036,256.0181 L3203.9876,256.0181 Z M3203.9876,259.0454 L3203.9876,257.2713 L3205.6803,257.2713 C3206.2012,257.2713 3206.6081,257.369 3206.9173,257.548 C3207.2428,257.7433 3207.4544,258.0688 3207.4544,258.3781 C3207.4544,258.8175 3207.0313,259.0454 3206.1686,259.0454 L3203.9876,259.0454 Z " fill="#000000"/><text fill="#4E5D6C" font-family="Verdana" font-size="12.5" font-style="italic" lengthAdjust="spacing" textLength="68.75" x="3233.8542" y="249.1028">&#171;Backend&#187;</text><text fill="#FFFFFF" font-family="Verdana" font-size="11.4583" lengthAdjust="spacing" textLength="77.0833" x="3229.6875" y="273.1033">GroupsModel</text><line style="stroke:#EC7211;stroke-width:1.0416666666666667;" x1="3151.0417" x2="3354.1667" y1="286.2223" y2="286.2223"/><rect fill="none" height="6.25" style="stroke:#C82930;stroke-width:1.0416666666666667;" width="6.25" x="3158.3333" y="300.7039"/><text fill="#FFFFFF" font-family="Verdana" font-size="11.4583" lengthAdjust="spacing" textLength="110.4167" x="3175" y="306.2332">groupName: String</text><rect fill="none" height="6.25" style="stroke:#C82930;stroke-width:1.0416666666666667;" width="6.25" x="3158.3333" y="324.4588"/><text fill="#FFFFFF" font-family="Verdana" font-size="11.4583" lengthAdjust="spacing" textLength="168.75" x="3175" y="329.9881">groupMembers: List&lt;String&gt;</text><rect fill="none" height="6.25" style="stroke:#C82930;stroke-width:1.0416666666666667;" width="6.25" x="3158.3333" y="348.2137"/><text fill="#FFFFFF" font-family="Verdana" font-size="11.4583" lengthAdjust="spacing" textLength="67.7083" x="3175" y="353.743">user: String</text><line style="stroke:#EC7211;stroke-width:1.0416666666666667;" x1="3151.0417" x2="3354.1667" y1="365.8203" y2="365.8203"/></g><!--class GroupsDao--><g id="elem_GroupsDao"><rect codeLine="135" fill="url(#g1mjyspxg2s0dt0)" height="194.5801" id="GroupsDao" rx="4.1667" ry="4.1667" style="stroke:#EC7211;stroke-width:1.0416666666666667;" width="404.1667" x="2214.5833" y="356.25"/><rect fill="url(#g1mjyspxg2s0dt0)" height="59.139" rx="4.1667" ry="4.1667" style="stroke:url(#g1mjyspxg2s0dt0);stroke-width:1.0416666666666667;" width="404.1667" x="2214.5833" y="356.25"/><rect fill="url(#g1mjyspxg2s0dt0)" height="4.1667" style="stroke:url(#g1mjyspxg2s0dt0);stroke-width:1.0416666666666667;" width="404.1667" x="2214.5833" y="411.2223"/><rect codeLine="135" fill="none" height="194.5801" id="GroupsDao" rx="4.1667" ry="4.1667" style="stroke:#EC7211;stroke-width:1.0416666666666667;" width="404.1667" x="2214.5833" y="356.25"/><ellipse cx="2374.4792" cy="385.8195" fill="#81C784" rx="10.4167" ry="10.4167" style="stroke:#181818;stroke-width:1.0416666666666667;"/><path d="M2372.526,388.2121 L2372.347,388.2121 C2372.0378,388.2121 2371.9238,388.2284 2371.8099,388.3097 C2371.6309,388.4074 2371.5169,388.6353 2371.5169,388.8468 C2371.5169,389.0259 2371.6146,389.2212 2371.7773,389.3351 C2371.875,389.4328 2372.054,389.4653 2372.347,389.4653 L2376.0254,389.4653 C2377.5065,389.4653 2378.4993,388.6678 2378.4993,387.4634 C2378.4993,386.6821 2378.0599,386.0962 2377.1647,385.6567 C2377.7181,385.2336 2377.9622,384.8104 2377.9622,384.2407 C2377.9622,383.0526 2376.9206,382.1737 2375.5046,382.1737 L2372.347,382.1737 C2372.0378,382.1737 2371.9238,382.1899 2371.8099,382.2713 C2371.6471,382.3853 2371.5169,382.5968 2371.5169,382.8084 C2371.5169,382.9875 2371.6146,383.1828 2371.7773,383.313 C2371.8913,383.4106 2372.0215,383.4269 2372.347,383.4269 L2372.526,383.4269 L2372.526,388.2121 Z M2373.7793,385.1847 L2373.7793,383.4269 L2375.4395,383.4269 C2376.237,383.4269 2376.709,383.7199 2376.709,384.2244 C2376.709,384.8104 2376.0905,385.1847 2375.1953,385.1847 L2373.7793,385.1847 Z M2373.7793,388.2121 L2373.7793,386.438 L2375.472,386.438 C2375.9928,386.438 2376.3997,386.5356 2376.709,386.7147 C2377.0345,386.91 2377.2461,387.2355 2377.2461,387.5448 C2377.2461,387.9842 2376.8229,388.2121 2375.9603,388.2121 L2373.7793,388.2121 Z " fill="#000000"/><text fill="#4E5D6C" font-family="Verdana" font-size="12.5" font-style="italic" lengthAdjust="spacing" textLength="68.75" x="2397.9167" y="378.2694">&#171;Backend&#187;</text><text fill="#FFFFFF" font-family="Verdana" font-size="11.4583" lengthAdjust="spacing" textLength="65.625" x="2399.4792" y="402.27">GroupsDao</text><line style="stroke:#EC7211;stroke-width:1.0416666666666667;" x1="2215.625" x2="2617.7083" y1="415.389" y2="415.389"/><line style="stroke:#EC7211;stroke-width:1.0416666666666667;" x1="2215.625" x2="2617.7083" y1="423.7223" y2="423.7223"/><ellipse cx="2226.0417" cy="441.3289" fill="#84BE84" rx="3.125" ry="3.125" style="stroke:#038048;stroke-width:1.0416666666666667;"/><text fill="#FFFFFF" font-family="Verdana" font-size="11.4583" lengthAdjust="spacing" textLength="367.7083" x="2239.5833" y="443.7332">createGroup(groupName: String, groupMembers: List&lt;String&gt;,</text><text fill="#FFFFFF" font-family="Verdana" font-size="11.4583" lengthAdjust="spacing" textLength="127.0833" x="2239.5833" y="467.4881">user: String): boolean</text><ellipse cx="2226.0417" cy="488.8387" fill="#84BE84" rx="3.125" ry="3.125" style="stroke:#038048;stroke-width:1.0416666666666667;"/><text fill="#FFFFFF" font-family="Verdana" font-size="11.4583" lengthAdjust="spacing" textLength="352.0833" x="2239.5833" y="491.243">editGroup(groupName: String, groupMembers: List&lt;String&gt;,</text><text fill="#FFFFFF" font-family="Verdana" font-size="11.4583" lengthAdjust="spacing" textLength="127.0833" x="2239.5833" y="514.9979">user: String): boolean</text><ellipse cx="2226.0417" cy="536.3485" fill="#84BE84" rx="3.125" ry="3.125" style="stroke:#038048;stroke-width:1.0416666666666667;"/><text fill="#FFFFFF" font-family="Verdana" font-size="11.4583" lengthAdjust="spacing" textLength="215.625" x="2239.5833" y="538.7527">getGroups(user: String): GroupModel</text></g><!--class GroupsDaoImpl--><g id="elem_GroupsDaoImpl"><rect codeLine="143" fill="url(#g1mjyspxg2s0dt0)" height="218.335" id="GroupsDaoImpl" rx="4.1667" ry="4.1667" style="stroke:#EC7211;stroke-width:1.0416666666666667;" width="404.1667" x="2682.2917" y="191.1458"/><rect fill="url(#g1mjyspxg2s0dt0)" height="59.139" rx="4.1667" ry="4.1667" style="stroke:url(#g1mjyspxg2s0dt0);stroke-width:1.0416666666666667;" width="404.1667" x="2682.2917" y="191.1458"/><rect fill="url(#g1mjyspxg2s0dt0)" height="4.1667" style="stroke:url(#g1mjyspxg2s0dt0);stroke-width:1.0416666666666667;" width="404.1667" x="2682.2917" y="246.1182"/><rect codeLine="143" fill="none" height="218.335" id="GroupsDaoImpl" rx="4.1667" ry="4.1667" style="stroke:#EC7211;stroke-width:1.0416666666666667;" width="404.1667" x="2682.2917" y="191.1458"/><ellipse cx="2829.6875" cy="220.7153" fill="#81C784" rx="10.4167" ry="10.4167" style="stroke:#181818;stroke-width:1.0416666666666667;"/><path d="M2827.7344,223.1079 L2827.5553,223.1079 C2827.2461,223.1079 2827.1322,223.1242 2827.0182,223.2056 C2826.8392,223.3032 2826.7253,223.5311 2826.7253,223.7427 C2826.7253,223.9217 2826.8229,224.117 2826.9857,224.231 C2827.0833,224.3286 2827.2624,224.3612 2827.5553,224.3612 L2831.2337,224.3612 C2832.7148,224.3612 2833.7077,223.5636 2833.7077,222.3592 C2833.7077,221.578 2833.2682,220.992 2832.373,220.5526 C2832.9264,220.1294 2833.1706,219.7062 2833.1706,219.1366 C2833.1706,217.9484 2832.1289,217.0695 2830.7129,217.0695 L2827.5553,217.0695 C2827.2461,217.0695 2827.1322,217.0858 2827.0182,217.1672 C2826.8555,217.2811 2826.7253,217.4927 2826.7253,217.7043 C2826.7253,217.8833 2826.8229,218.0786 2826.9857,218.2088 C2827.0996,218.3065 2827.2298,218.3228 2827.5553,218.3228 L2827.7344,218.3228 L2827.7344,223.1079 Z M2828.9876,220.0806 L2828.9876,218.3228 L2830.6478,218.3228 C2831.4453,218.3228 2831.9173,218.6157 2831.9173,219.1203 C2831.9173,219.7062 2831.2988,220.0806 2830.4036,220.0806 L2828.9876,220.0806 Z M2828.9876,223.1079 L2828.9876,221.3338 L2830.6803,221.3338 C2831.2012,221.3338 2831.6081,221.4315 2831.9173,221.6105 C2832.2428,221.8058 2832.4544,222.1313 2832.4544,222.4406 C2832.4544,222.88 2832.0313,223.1079 2831.1686,223.1079 L2828.9876,223.1079 Z " fill="#000000"/><text fill="#4E5D6C" font-family="Verdana" font-size="12.5" font-style="italic" lengthAdjust="spacing" textLength="68.75" x="2865.625" y="213.1653">&#171;Backend&#187;</text><text fill="#FFFFFF" font-family="Verdana" font-size="11.4583" lengthAdjust="spacing" textLength="90.625" x="2854.6875" y="237.1658">GroupsDaoImpl</text><line style="stroke:#EC7211;stroke-width:1.0416666666666667;" x1="2683.3333" x2="3085.4167" y1="250.2848" y2="250.2848"/><line style="stroke:#EC7211;stroke-width:1.0416666666666667;" x1="2683.3333" x2="3085.4167" y1="258.6182" y2="258.6182"/><ellipse cx="2693.75" cy="276.2248" fill="#84BE84" rx="3.125" ry="3.125" style="stroke:#038048;stroke-width:1.0416666666666667;"/><text fill="#FFFFFF" font-family="Verdana" font-size="11.4583" lengthAdjust="spacing" textLength="367.7083" x="2707.2917" y="278.629">createGroup(groupName: String, groupMembers: List&lt;String&gt;,</text><text fill="#FFFFFF" font-family="Verdana" font-size="11.4583" lengthAdjust="spacing" textLength="127.0833" x="2707.2917" y="302.3839">user: String): boolean</text><ellipse cx="2693.75" cy="323.7345" fill="#84BE84" rx="3.125" ry="3.125" style="stroke:#038048;stroke-width:1.0416666666666667;"/><text fill="#FFFFFF" font-family="Verdana" font-size="11.4583" lengthAdjust="spacing" textLength="352.0833" x="2707.2917" y="326.1388">editGroup(groupName: String, groupMembers: List&lt;String&gt;,</text><text fill="#FFFFFF" font-family="Verdana" font-size="11.4583" lengthAdjust="spacing" textLength="127.0833" x="2707.2917" y="349.8937">user: String): boolean</text><ellipse cx="2693.75" cy="371.2443" fill="#84BE84" rx="3.125" ry="3.125" style="stroke:#038048;stroke-width:1.0416666666666667;"/><text fill="#FFFFFF" font-family="Verdana" font-size="11.4583" lengthAdjust="spacing" textLength="215.625" x="2707.2917" y="373.6486">getGroups(user: String): GroupModel</text><ellipse cx="2693.75" cy="394.9992" fill="#84BE84" rx="3.125" ry="3.125" style="stroke:#038048;stroke-width:1.0416666666666667;"/><text fill="#FFFFFF" font-family="Verdana" font-size="11.4583" lengthAdjust="spacing" textLength="243.75" x="2707.2917" y="397.4035">getMail(users: List&lt;String&gt;): List&lt;String&gt;</text></g><!--class MailManager--><g id="elem_MailManager"><rect codeLine="152" fill="url(#g1mjyspxg2s0dt0)" height="123.3154" id="MailManager" rx="4.1667" ry="4.1667" style="stroke:#EC7211;stroke-width:1.0416666666666667;" width="280.2083" x="2744.2708" y="519.2708"/><rect fill="url(#g1mjyspxg2s0dt0)" height="59.139" rx="4.1667" ry="4.1667" style="stroke:url(#g1mjyspxg2s0dt0);stroke-width:1.0416666666666667;" width="280.2083" x="2744.2708" y="519.2708"/><rect fill="url(#g1mjyspxg2s0dt0)" height="4.1667" style="stroke:url(#g1mjyspxg2s0dt0);stroke-width:1.0416666666666667;" width="280.2083" x="2744.2708" y="574.2432"/><rect codeLine="152" fill="none" height="123.3154" id="MailManager" rx="4.1667" ry="4.1667" style="stroke:#EC7211;stroke-width:1.0416666666666667;" width="280.2083" x="2744.2708" y="519.2708"/><ellipse cx="2838.0208" cy="548.8403" fill="#81C784" rx="10.4167" ry="10.4167" style="stroke:#181818;stroke-width:1.0416666666666667;"/><path d="M2836.0677,551.2329 L2835.8887,551.2329 C2835.5794,551.2329 2835.4655,551.2492 2835.3516,551.3306 C2835.1725,551.4282 2835.0586,551.6561 2835.0586,551.8677 C2835.0586,552.0467 2835.1563,552.242 2835.319,552.356 C2835.4167,552.4536 2835.5957,552.4862 2835.8887,552.4862 L2839.5671,552.4862 C2841.0482,552.4862 2842.041,551.6886 2842.041,550.4842 C2842.041,549.703 2841.6016,549.117 2840.7064,548.6776 C2841.2598,548.2544 2841.5039,547.8312 2841.5039,547.2616 C2841.5039,546.0734 2840.4622,545.1945 2839.0462,545.1945 L2835.8887,545.1945 C2835.5794,545.1945 2835.4655,545.2108 2835.3516,545.2922 C2835.1888,545.4061 2835.0586,545.6177 2835.0586,545.8293 C2835.0586,546.0083 2835.1563,546.2036 2835.319,546.3338 C2835.4329,546.4315 2835.5632,546.4478 2835.8887,546.4478 L2836.0677,546.4478 L2836.0677,551.2329 Z M2837.321,548.2056 L2837.321,546.4478 L2838.9811,546.4478 C2839.7786,546.4478 2840.2507,546.7407 2840.2507,547.2453 C2840.2507,547.8312 2839.6322,548.2056 2838.737,548.2056 L2837.321,548.2056 Z M2837.321,551.2329 L2837.321,549.4588 L2839.0137,549.4588 C2839.5345,549.4588 2839.9414,549.5565 2840.2507,549.7355 C2840.5762,549.9308 2840.7878,550.2563 2840.7878,550.5656 C2840.7878,551.005 2840.3646,551.2329 2839.502,551.2329 L2837.321,551.2329 Z " fill="#000000"/><text fill="#4E5D6C" font-family="Verdana" font-size="12.5" font-style="italic" lengthAdjust="spacing" textLength="68.75" x="2865.625" y="541.2903">&#171;Backend&#187;</text><text fill="#FFFFFF" font-family="Verdana" font-size="11.4583" lengthAdjust="spacing" textLength="73.9583" x="2863.0208" y="565.2908">MailManager</text><line style="stroke:#EC7211;stroke-width:1.0416666666666667;" x1="2745.3125" x2="3023.4375" y1="578.4098" y2="578.4098"/><line style="stroke:#EC7211;stroke-width:1.0416666666666667;" x1="2745.3125" x2="3023.4375" y1="586.7432" y2="586.7432"/><ellipse cx="2755.7292" cy="604.3498" fill="#84BE84" rx="3.125" ry="3.125" style="stroke:#038048;stroke-width:1.0416666666666667;"/><text fill="#FFFFFF" font-family="Verdana" font-size="11.4583" lengthAdjust="spacing" textLength="243.75" x="2769.2708" y="606.754">getMail(users: List&lt;String&gt;): List&lt;String&gt;</text><ellipse cx="2755.7292" cy="628.1047" fill="#84BE84" rx="3.125" ry="3.125" style="stroke:#038048;stroke-width:1.0416666666666667;"/><text fill="#FFFFFF" font-family="Verdana" font-size="11.4583" lengthAdjust="spacing" textLength="102.0833" x="2769.2708" y="630.5089">sendEmail(): void</text></g><!--link LoginPage to UserDaoImpl--><g id="link_LoginPage_UserDaoImpl"><path codeLine="157" d="M259.35,214.1771 C361.2594,154.9271 540.425,67.1875 707.8125,67.1875 C707.8125,67.1875 707.8125,67.1875 2417.7083,67.1875 C2515.1354,67.1875 2623.9896,70.1875 2711.9271,73.3646 " fill="none" id="LoginPage-UserDaoImpl" style="stroke:#EC7211;stroke-width:3.125;"/><polygon fill="#EC7211" points="254.5563,216.9792,264.7527,215.8461,259.0529,214.3511,260.5479,208.6514,254.5563,216.9792" style="stroke:#EC7211;stroke-width:3.125;"/><polygon fill="#EC7211" points="2717.1667,73.5521,2707.9399,69.0666,2711.9614,73.3736,2707.6544,77.3951,2717.1667,73.5521" style="stroke:#EC7211;stroke-width:3.125;"/><text fill="#4E5D6C" font-family="Verdana" font-size="12.5" lengthAdjust="spacing" textLength="30.2083" x="1519.2708" y="58.9986">login</text></g><!--link LoginPage to TopicsView--><g id="link_LoginPage_TopicsView"><path codeLine="158" d="M227.9354,321.1354 C312.7469,408.4375 481.9573,582.6188 595.0573,699.0385 " fill="none" id="LoginPage-TopicsView" style="stroke:#EC7211;stroke-width:3.125;"/><polygon fill="#EC7211" points="224.1688,317.2604,227.7139,326.8876,227.7984,320.9957,233.6904,321.0802,224.1688,317.2604" style="stroke:#EC7211;stroke-width:3.125;"/><polygon fill="#EC7211" points="598.7208,702.8104,595.1796,693.1817,595.0927,699.0737,589.2008,698.9867,598.7208,702.8104" style="stroke:#EC7211;stroke-width:3.125;"/><text fill="#4E5D6C" font-family="Verdana" font-size="12.5" lengthAdjust="spacing" textLength="182.2917" x="379.1667" y="467.3319">login successfully and logout</text></g><!--link TopicsView to CreateTopicModal--><g id="link_TopicsView_CreateTopicModal"><path codeLine="159" d="M818.9135,754.5896 C837.5271,744.2573 857.3948,733.2292 877.5615,722.0344 " fill="none" id="TopicsView-to-CreateTopicModal" style="stroke:#EC7211;stroke-width:3.125;"/><polygon fill="#EC7211" points="882.1417,719.4917,871.9227,720.3997,877.5881,722.0199,875.9679,727.6853,882.1417,719.4917" style="stroke:#EC7211;stroke-width:3.125;"/></g><!--link TopicsView to EditTopicModal--><g id="link_TopicsView_EditTopicModal"><path codeLine="160" d="M818.9135,861.326 C842.8281,871.4656 868.8135,882.4833 894.8438,893.5198 " fill="none" id="TopicsView-to-EditTopicModal" style="stroke:#EC7211;stroke-width:3.125;"/><polygon fill="#EC7211" points="899.7042,895.5813,892.6992,888.0858,894.909,893.5483,889.4465,895.7581,899.7042,895.5813" style="stroke:#EC7211;stroke-width:3.125;"/></g><!--link TopicsView to VotingTopicModal--><g id="link_TopicsView_VotingTopicModal"><path codeLine="161" d="M778.7396,948.1469 C806.551,993.1469 841.7292,1041.1708 882.2917,1077.6042 C897.4917,1091.2573 914.8292,1103.624 932.8052,1114.6615 " fill="none" id="TopicsView-to-VotingTopicModal" style="stroke:#EC7211;stroke-width:3.125;"/><polygon fill="#EC7211" points="937.3875,1117.4396,931.5285,1109.018,932.933,1114.7407,927.2103,1116.1452,937.3875,1117.4396" style="stroke:#EC7211;stroke-width:3.125;"/></g><!--link TopicsView to TopicDaoImpl--><g id="link_TopicsView_TopicDaoImpl"><path codeLine="162" d="M818.8823,819.4375 C935.4646,825.4906 1125.3646,839.4323 1286.4583,870.3125 C1305.3958,873.9417 1324.9688,878.3927 1344.4271,883.2844 " fill="none" id="TopicsView-to-TopicDaoImpl" style="stroke:#EC7211;stroke-width:3.125;"/><polygon fill="#EC7211" points="1349.9063,884.675,1341.8423,878.3327,1344.8576,883.3953,1339.7949,886.4106,1349.9063,884.675" style="stroke:#EC7211;stroke-width:3.125;"/><text fill="#4E5D6C" font-family="Verdana" font-size="12.5" lengthAdjust="spacing" textLength="141.6667" x="1013.5417" y="814.2069">load, close and delete</text></g><!--link CreateTopicModal to TopicDaoImpl--><g id="link_CreateTopicModal_TopicDaoImpl"><path codeLine="164" d="M1283.9688,756.0333 C1304.2917,771.2083 1324.9063,786.5938 1345.1146,801.6823 " fill="none" id="CreateTopicModal-TopicDaoImpl" style="stroke:#EC7211;stroke-width:3.125;"/><polygon fill="#EC7211" points="1279.6042,752.7729,1284.6323,761.7155,1283.7806,755.8848,1289.6113,755.0331,1279.6042,752.7729" style="stroke:#EC7211;stroke-width:3.125;"/><polygon fill="#EC7211" points="1349.6979,805.101,1344.6698,796.1585,1345.5214,801.9892,1339.6908,802.8408,1349.6979,805.101" style="stroke:#EC7211;stroke-width:3.125;"/></g><!--link CreateTopicModal to GroupsDaoImpl--><g id="link_CreateTopicModal_GroupsDaoImpl"><path codeLine="165" d="M1213.75,458.9833 C1295.9688,380.5937 1410.1042,300.5208 1533.3333,300.5208 C1533.3333,300.5208 1533.3333,300.5208 2417.7083,300.5208 C2502.5417,300.5208 2596.0729,300.5208 2676.9167,300.5208 " fill="none" id="CreateTopicModal-GroupsDaoImpl" style="stroke:#EC7211;stroke-width:3.125;"/><polygon fill="#EC7211" points="1209.8646,462.7156,1219.5095,459.2189,1213.6181,459.1048,1213.7322,453.2133,1209.8646,462.7156" style="stroke:#EC7211;stroke-width:3.125;"/><polygon fill="#EC7211" points="2682.2188,300.5208,2672.8438,296.3542,2677.0104,300.5208,2672.8438,304.6875,2682.2188,300.5208" style="stroke:#EC7211;stroke-width:3.125;"/></g><!--link EditTopicModal to TopicDaoImpl--><g id="link_EditTopicModal_TopicDaoImpl"><path codeLine="166" d="M1274.2188,960.2646 C1297.4792,958.6427 1321.25,956.9833 1344.5104,955.3615 " fill="none" id="EditTopicModal-TopicDaoImpl" style="stroke:#EC7211;stroke-width:3.125;"/><polygon fill="#EC7211" points="1268.8958,960.6365,1278.5444,964.123,1274.0909,960.2645,1277.9494,955.811,1268.8958,960.6365" style="stroke:#EC7211;stroke-width:3.125;"/><polygon fill="#EC7211" points="1349.7813,954.9938,1340.1426,951.4797,1344.5852,955.3509,1340.714,959.7934,1349.7813,954.9938" style="stroke:#EC7211;stroke-width:3.125;"/></g><!--link VotingTopicModal to VotingDaoImpl--><g id="link_VotingTopicModal_VotingDaoImpl"><path codeLine="167" d="M1158.9271,1270.2156 C1240.3438,1358.625 1380.4792,1480.7292 1533.3333,1480.7292 C1533.3333,1480.7292 1533.3333,1480.7292 2417.7083,1480.7292 C2590.6771,1480.7292 2744.6354,1327.5719 2824.8229,1230.5313 " fill="none" id="VotingTopicModal-VotingDaoImpl" style="stroke:#EC7211;stroke-width:3.125;"/><polygon fill="#EC7211" points="1155.3333,1266.2958,1158.5947,1276.0229,1158.8519,1270.1359,1164.7389,1270.3931,1155.3333,1266.2958" style="stroke:#EC7211;stroke-width:3.125;"/><polygon fill="#EC7211" points="2828.3542,1226.2417,2819.1869,1230.8474,2825.051,1230.2685,2825.6299,1236.1326,2828.3542,1226.2417" style="stroke:#EC7211;stroke-width:3.125;"/></g><!--link SqliteDatabase to TopicDao--><g id="link_SqliteDatabase_TopicDao"><path codeLine="169" d="M2037.0625,505.0615 C2097.8646,572.0646 2117.8229,639.0667 2096.9375,706.0688 " fill="none" id="SqliteDatabase-TopicDao" style="stroke:#EC7211;stroke-width:3.125;"/><polygon fill="#EC7211" points="2033.375,501.0573,2036.6654,510.7745,2036.905,504.8868,2042.7927,505.1265,2033.375,501.0573" style="stroke:#EC7211;stroke-width:3.125;"/><polygon fill="#EC7211" points="2095.1875,711.4094,2102.0706,703.8019,2096.8121,706.4609,2094.1531,701.2024,2095.1875,711.4094" style="stroke:#EC7211;stroke-width:3.125;"/></g><!--link TopicDao to SqliteDatabase--><!--link SqliteDatabase to VotingDao--><g id="link_SqliteDatabase_VotingDao"><path codeLine="170" d="M2038.4792,479.0906 C2087.5729,505.1146 2154.6563,540.0802 2214.5833,569.2708 C2230.8125,577.1781 2247.875,585.2771 2264.9167,593.2302 " fill="none" id="SqliteDatabase-VotingDao" style="stroke:#EC7211;stroke-width:3.125;"/><polygon fill="#EC7211" points="2033.7813,476.6,2040.111,484.6738,2038.3824,479.0405,2044.0157,477.3119,2033.7813,476.6" style="stroke:#EC7211;stroke-width:3.125;"/><polygon fill="#EC7211" points="2269.7188,595.4688,2262.9838,587.7297,2264.9986,593.2671,2259.4612,595.2819,2269.7188,595.4688" style="stroke:#EC7211;stroke-width:3.125;"/></g><!--link SqliteDatabase to UserDao--><g id="link_SqliteDatabase_UserDao"><path codeLine="171" d="M2038.5208,400.4688 C2109.6667,359.6042 2220.3854,296 2303.4896,248.2708 " fill="none" id="SqliteDatabase-UserDao" style="stroke:#EC7211;stroke-width:3.125;"/><polygon fill="#EC7211" points="2033.8021,403.1771,2044.0042,402.0964,2038.3122,400.5722,2039.8364,394.8802,2033.8021,403.1771" style="stroke:#EC7211;stroke-width:3.125;"/><polygon fill="#EC7211" points="2308.4167,245.4375,2298.213,246.5036,2303.9028,248.0359,2302.3705,253.7258,2308.4167,245.4375" style="stroke:#EC7211;stroke-width:3.125;"/></g><!--link SqliteDatabase to GroupsDao--><g id="link_SqliteDatabase_GroupsDao"><path codeLine="172" d="M2039.2188,443.1417 C2085.3542,444.4292 2147.9375,446.175 2208.8125,447.874 " fill="none" id="SqliteDatabase-GroupsDao" style="stroke:#EC7211;stroke-width:3.125;"/><polygon fill="#EC7211" points="2033.8021,442.9906,2043.0668,447.397,2039.0087,443.1245,2043.2811,439.0664,2033.8021,442.9906" style="stroke:#EC7211;stroke-width:3.125;"/><polygon fill="#EC7211" points="2214.3229,448.0281,2205.0708,443.5953,2209.1167,447.8793,2204.8327,451.9253,2214.3229,448.0281" style="stroke:#EC7211;stroke-width:3.125;"/></g><!--reverse link TopicDaoImpl to TopicModel--><g id="link_TopicDaoImpl_TopicModel"><path codeLine="174" d="M1722.9375,1089.7563 C1780.5521,1135.0885 1840.8438,1182.5333 1886.9167,1218.7917 " fill="none" id="TopicDaoImpl-backto-TopicModel" style="stroke:#EC7211;stroke-width:3.125;"/><polygon fill="#EC7211" points="1718.8021,1086.4958,1723.5823,1095.5734,1722.8913,1089.7215,1728.7433,1089.0306,1718.8021,1086.4958" style="stroke:#EC7211;stroke-width:3.125;"/></g><!--link TopicDao to TopicDaoImpl--><g id="link_TopicDao_TopicDaoImpl"><path codeLine="175" d="M1776.875,886.7094 C1759.4063,889.5875 1741.6979,892.6313 1724.2292,895.7594 " fill="none" id="TopicDao-TopicDaoImpl" style="stroke:#EC7211;stroke-width:3.125;"/><polygon fill="#EC7211" points="1782.2917,885.8219,1772.3633,883.2373,1777.1528,886.6699,1773.7202,891.4594,1782.2917,885.8219" style="stroke:#EC7211;stroke-width:3.125;"/><polygon fill="#EC7211" points="1718.8021,896.7354,1728.7669,899.1757,1723.9281,895.8129,1727.2908,890.9741,1718.8021,896.7354" style="stroke:#EC7211;stroke-width:3.125;"/></g><!--reverse link TopicDaoImpl to TopicDao--><!--reverse link VotingDaoImpl to VotingModel--><g id="link_VotingDaoImpl_VotingModel"><path codeLine="177" d="M3036.8542,1152.6042 C3086.5313,1152.6042 3139.4167,1152.6042 3180.2604,1152.6042 " fill="none" id="VotingDaoImpl-backto-VotingModel" style="stroke:#EC7211;stroke-width:3.125;"/><polygon fill="#EC7211" points="3031.4375,1152.6042,3040.8125,1156.7708,3036.6458,1152.6042,3040.8125,1148.4375,3031.4375,1152.6042" style="stroke:#EC7211;stroke-width:3.125;"/></g><!--link VotingDao to VotingDaoImpl--><g id="link_VotingDao_VotingDaoImpl"><path codeLine="178" d="M2491.0521,738.3885 C2578.2083,830.4188 2722.7604,983.0521 2809.9375,1075.1031 " fill="none" id="VotingDao-VotingDaoImpl" style="stroke:#EC7211;stroke-width:3.125;"/><polygon fill="#EC7211" points="2487.4167,734.5448,2490.8408,744.2157,2490.9992,738.3253,2496.8896,738.4837,2487.4167,734.5448" style="stroke:#EC7211;stroke-width:3.125;"/><polygon fill="#EC7211" points="2813.5313,1078.8958,2810.1071,1069.2249,2809.9487,1075.1153,2804.0583,1074.957,2813.5313,1078.8958" style="stroke:#EC7211;stroke-width:3.125;"/></g><!--reverse link UserDaoImpl to UserModel--><g id="link_UserDaoImpl_UserModel"><path codeLine="180" d="M3056.9063,80.7292 C3102.6875,80.7292 3149.4479,80.7292 3185.6563,80.7292 " fill="none" id="UserDaoImpl-backto-UserModel" style="stroke:#EC7211;stroke-width:3.125;"/><polygon fill="#EC7211" points="3051.6146,80.7292,3060.9896,84.8958,3056.8229,80.7292,3060.9896,76.5625,3051.6146,80.7292" style="stroke:#EC7211;stroke-width:3.125;"/></g><!--link UserDao to UserDaoImpl--><g id="link_UserDao_UserDaoImpl"><path codeLine="181" d="M2589.75,145.75 C2629.5729,136.9271 2671.9479,127.5417 2711.75,118.7292 " fill="none" id="UserDao-UserDaoImpl" style="stroke:#EC7211;stroke-width:3.125;"/><polygon fill="#EC7211" points="2584.1667,146.9896,2594.2223,149.0233,2589.251,145.8597,2592.4145,140.8884,2584.1667,146.9896" style="stroke:#EC7211;stroke-width:3.125;"/><polygon fill="#EC7211" points="2717.0938,117.5417,2707.0369,115.5142,2712.0101,118.6747,2708.8497,123.648,2717.0938,117.5417" style="stroke:#EC7211;stroke-width:3.125;"/></g><!--link UserDao to GroupsDaoImpl--><g id="link_UserDao_GroupsDaoImpl"><path codeLine="182" d="M2589.3854,226.8646 C2617.8958,234.0104 2647.7292,241.4896 2676.9896,248.8229 " fill="none" id="UserDao-GroupsDaoImpl" style="stroke:#EC7211;stroke-width:3.125;"/><polygon fill="#EC7211" points="2584.1667,225.5625,2592.2468,231.8841,2589.2186,226.8292,2594.2735,223.801,2584.1667,225.5625" style="stroke:#EC7211;stroke-width:3.125;"/><polygon fill="#EC7211" points="2682.0625,250.0937,2673.978,243.7777,2677.0097,248.8305,2671.9568,251.8622,2682.0625,250.0937" style="stroke:#EC7211;stroke-width:3.125;"/></g><!--reverse link GroupsDaoImpl to GroupsModel--><g id="link_GroupsDaoImpl_GroupsModel"><path codeLine="184" d="M3092.3021,300.5208 C3112.1354,300.5208 3131.5938,300.5208 3149.7188,300.5208 " fill="none" id="GroupsDaoImpl-backto-GroupsModel" style="stroke:#EC7211;stroke-width:3.125;"/><polygon fill="#EC7211" points="3086.6979,300.5208,3096.0729,304.6875,3091.9063,300.5208,3096.0729,296.3542,3086.6979,300.5208" style="stroke:#EC7211;stroke-width:3.125;"/></g><!--link GroupsDao to GroupsDaoImpl--><g id="link_GroupsDao_GroupsDaoImpl"><path codeLine="185" d="M2624.2917,385.7083 C2641.6563,380 2659.2083,374.2292 2676.5729,368.5104 " fill="none" id="GroupsDao-GroupsDaoImpl" style="stroke:#EC7211;stroke-width:3.125;"/><polygon fill="#EC7211" points="2618.8958,387.4896,2629.1019,388.5331,2623.8457,385.8693,2626.5095,380.6132,2618.8958,387.4896" style="stroke:#EC7211;stroke-width:3.125;"/><polygon fill="#EC7211" points="2681.9583,366.7396,2671.7523,365.6961,2677.0084,368.3598,2674.3447,373.6159,2681.9583,366.7396" style="stroke:#EC7211;stroke-width:3.125;"/></g><!--link GroupsDao to MailManager--><g id="link_GroupsDao_MailManager"><path codeLine="186" d="M2618.8958,508.5552 C2659.2604,519.5729 2700.9271,530.9438 2738.9063,541.3094 " fill="none" id="GroupsDao-to-MailManager" style="stroke:#EC7211;stroke-width:3.125;"/><polygon fill="#EC7211" points="2743.9896,542.699,2736.0395,536.2146,2738.9644,541.3299,2733.849,544.2549,2743.9896,542.699" style="stroke:#EC7211;stroke-width:3.125;"/></g><!--link TopicDaoImpl to MailManager--><g id="link_TopicDaoImpl_MailManager"><path codeLine="188" d="M1719.0417,1026.3135 C1740.0313,1033.2208 1761.3854,1039.1177 1782.2917,1043.2292 C1943.0938,1074.8635 1993.4479,1088.2052 2151.0417,1043.2292 C2422.1042,965.8719 2688.8646,753.799 2812.2604,645.7927 " fill="none" id="TopicDaoImpl-to-MailManager" style="stroke:#EC7211;stroke-width:3.125;"/><polygon fill="#EC7211" points="2816.2292,642.3115,2806.4346,645.3639,2812.3147,645.7471,2811.9315,651.6272,2816.2292,642.3115" style="stroke:#EC7211;stroke-width:3.125;"/></g><!--link SqliteDatabase to CreateTopicModal--><!--link CreateTopicModal to EditTopicModal--><!--link EditTopicModal to VotingTopicModal--><!--reverse link CreateTopicModal to TopicDao--><!--reverse link CreateTopicModal to VotingDao--><!--reverse link CreateTopicModal to UserDao--><!--reverse link CreateTopicModal to GroupsDao--><!--SRC=[xHXDRzCmzEvVuObBAze3CBHHJPLOjoAa3I4sTa4SlCHBBTAuYvrM4-A_upXsug-aQSKGG-kXQj-Nt_TxzW5Vu2M6QCF6D4TPWi51ZEz8Xk4yfnd7MJoZAStXYyFvxCtygCQUekX7Wpn-DJiwFgoHPuYZMyImmixVlJz-_HQ05Dzno2dCIRBWC2OvZZYX6G1HYXY35pGXsMUKO7Xo0WVpaJfog1M1qody2Q3ul8HfIJie6CupjCGJUCLpaYKZk1A2DZIFDMGuWRUKfXXbu9S-vvgkICHk2DxqEWZ55SD0oBeWZ9_8lvSqnkbK4KKvHXnBU4crfYHM61mJ7eAlQPXUm8NMNp0hKiuSN9HIrZ1fiogSK0RpDgHm5YruBQrsnAnHMvY3qXxkC2tbXAU6w_d3olXtNs1M1hU6I04GqbK9PSgL5MuwWcKa6-OafyNganbOnIqHbtXvYtDFX7IFo3p1L7uxlfDwVoZP1xxqBhdgP5D1FyIF8ZZ1IcuxYRHPniwFxhbElRwnRNBrdu-idTzTNhYH1RMJ7zODou2NtzUsEr315pJVmtnFyRNeGRhM7K9JIWyph-vJmh7kkzB8iv5glCCQN1ivLarG_H5EmlhtLw67_YtJZpcTKtO-USBfI3N-ePe6vW5M3ccOaKWAv6QJ0WUzgN2cfnJ8Ioi5Tp97GTU44Ivaaumh2EE85wnjLfmXkitUFGR54okofzqTzXcRJ4JuV8b8eDnqMdnShjBdr7XE3M_Wz6sItdXH27l6k4tHWYxG6fSDlDvvNLrwjQzc8NtaaMSjk5r3pxUYNxNzmvQKixLdPWI6d7ktKM1Svg4V-_AideDhvwjKlPzUbYLGiZgkw_J03dtpBsfMxJezezEsRxGter1OdRDxHUjFNsJyJlvOilLrngiL2PME3tYaNwRytrxPFwbBXakKeGJdsvsumm4TKz1unHcFfrR1JwgAjaXYkia4cV4cewWWAw88CtPNfEa3H4BLwXa36AIQstt82D7Or-4GXNjL3D5OYzz4RdPgpP0gLai30FxBIaX01vcL_y2zoWU5-JTTsp1D1zoxeYkjbQ2MqqgXejsAhyq2mBXBZekLQqnpxmhQ2imjgsAtZJGsdnOlDBEuuZSI5TIpqx4hZBHZ1Sn1Kecs2Onc7vRG46YyKSO0M2aubc-fBedZ_ehesuB4CSw-1-e5-fdeyJZruwIaH-uLKnDIuPGENThemkdXdMkRRkJ1bbDrLBUG6R7f9FmD]--></g></svg>